<?xml version="1.0" encoding="UTF-8"?>
<svg xmlns="http://www.w3.org/2000/svg" xmlns:xlink="http://www.w3.org/1999/xlink" width="170pt" height="170pt" viewBox="0 0 170 170" version="1.1">
<g id="surface1">
<path style=" stroke:none;fill-rule:nonzero;fill:rgb(98.823529%,80%,49.411765%);fill-opacity:1;" d="M 90.226562 142.523438 C 90.34375 140.894531 89.828125 139.472656 88.703125 138.296875 C 87.578125 137.511719 86.171875 137.027344 84.480469 136.855469 C 83.019531 137.027344 81.832031 137.5625 80.925781 138.46875 C 79.804688 139.535156 79.164062 140.894531 78.984375 142.523438 L 78.984375 160.089844 C 79.101562 161.730469 79.667969 163.054688 80.671875 164.058594 C 81.695312 165.070312 82.957031 165.585938 84.480469 165.585938 C 86.285156 165.585938 87.691406 165.070312 88.703125 164.058594 C 89.828125 162.9375 90.394531 161.582031 90.394531 160.007812 L 90.226562 142.523438 M 46.632812 122.238281 C 45.671875 121.285156 44.351562 120.8125 42.660156 120.8125 C 41.082031 120.8125 39.792969 121.347656 38.78125 122.410156 L 27.203125 133.8125 C 26.132812 135.058594 25.578125 136.351562 25.515625 137.710938 C 25.625 139.171875 26.195312 140.410156 27.203125 141.417969 C 28.042969 142.605469 29.398438 143.195312 31.261719 143.195312 C 32.773438 143.195312 34.097656 142.636719 35.230469 141.5 L 46.632812 130.269531 C 47.648438 129.144531 48.15625 127.875 48.15625 126.46875 C 48.15625 124.835938 47.648438 123.429688 46.632812 122.238281 M 30.839844 80.425781 C 29.820312 79.46875 28.472656 78.984375 26.78125 78.984375 L 8.949219 78.984375 C 7.324219 78.984375 6.019531 79.46875 5.074219 80.425781 C 3.941406 81.558594 3.382812 82.902344 3.382812 84.480469 C 3.382812 86.054688 3.941406 87.328125 5.074219 88.285156 C 6.019531 89.40625 7.324219 89.972656 8.949219 89.972656 L 26.78125 89.972656 C 28.359375 89.972656 29.703125 89.40625 30.839844 88.285156 C 31.910156 87.210938 32.4375 85.949219 32.4375 84.480469 C 32.4375 83.019531 31.910156 81.664062 30.839844 80.425781 M 47.050781 38.859375 L 35.648438 27.457031 C 34.347656 26.328125 33.035156 25.761719 31.679688 25.761719 C 30.101562 25.761719 28.808594 26.328125 27.789062 27.457031 C 26.550781 28.695312 25.929688 29.988281 25.929688 31.34375 C 25.929688 32.921875 26.550781 34.242188 27.789062 35.3125 L 39.203125 46.71875 C 40.210938 47.734375 41.503906 48.238281 43.089844 48.238281 C 44.667969 48.238281 45.980469 47.734375 47.050781 46.71875 C 48.070312 45.707031 48.578125 44.351562 48.578125 42.660156 C 48.578125 41.316406 48.070312 40.042969 47.050781 38.859375 M 112.441406 56.6875 C 104.671875 49.191406 95.351562 45.453125 84.480469 45.453125 C 73.722656 45.453125 64.515625 49.191406 56.855469 56.6875 C 49.191406 64.347656 45.371094 73.613281 45.371094 84.480469 C 45.371094 95.351562 49.191406 104.472656 56.855469 111.851562 C 64.464844 119.511719 73.667969 123.347656 84.480469 123.347656 C 95.460938 123.347656 104.789062 119.511719 112.441406 111.851562 C 120.164062 104.308594 124.015625 95.175781 124.015625 84.480469 C 124.015625 73.785156 120.164062 64.515625 112.441406 56.6875 M 90.226562 8.867188 C 90.226562 7.515625 89.722656 6.253906 88.703125 5.074219 C 87.410156 3.941406 86.003906 3.382812 84.480469 3.382812 C 83.070312 3.382812 81.808594 3.941406 80.671875 5.074219 C 79.550781 6.367188 78.984375 7.625 78.984375 8.867188 L 78.984375 25.679688 C 78.984375 27.308594 79.550781 28.644531 80.671875 29.648438 C 81.808594 30.722656 83.070312 31.261719 84.480469 31.261719 C 86.054688 31.261719 87.464844 30.722656 88.703125 29.648438 C 89.722656 28.644531 90.226562 27.308594 90.226562 25.679688 L 90.226562 8.867188 M 138.378906 143.109375 C 140.128906 143.109375 141.535156 142.539062 142.605469 141.417969 C 143.730469 140.410156 144.234375 139.085938 144.117188 137.445312 C 144.117188 136.039062 143.613281 134.832031 142.605469 133.8125 L 130.605469 121.820312 C 129.3125 120.695312 128.019531 120.128906 126.71875 120.128906 C 125.207031 120.128906 123.882812 120.695312 122.746094 121.820312 C 121.675781 122.894531 121.054688 124.214844 120.886719 125.792969 C 121.054688 127.253906 121.675781 128.527344 122.746094 129.597656 L 134.832031 141.417969 C 135.851562 142.539062 137.027344 143.109375 138.378906 143.109375 M 143.867188 78.984375 C 142.351562 78.984375 141.082031 79.550781 140.066406 80.671875 C 138.9375 81.746094 138.316406 83.039062 138.203125 84.5625 C 138.203125 86.085938 138.769531 87.375 139.894531 88.449219 C 140.914062 89.523438 142.238281 90.058594 143.867188 90.058594 L 160.089844 90.058594 C 161.664062 90.058594 163.019531 89.523438 164.144531 88.449219 C 165.15625 87.441406 165.667969 86.148438 165.667969 84.5625 C 165.773438 83.101562 165.269531 81.808594 164.144531 80.671875 C 162.90625 79.550781 161.550781 78.984375 160.089844 78.984375 L 143.867188 78.984375 M 142.175781 27.457031 C 141.164062 26.382812 139.839844 25.761719 138.203125 25.597656 C 136.691406 25.597656 135.429688 26.164062 134.410156 27.285156 L 121.738281 39.707031 C 120.613281 40.890625 120.046875 42.242188 120.046875 43.761719 C 120.164062 45.285156 120.78125 46.546875 121.90625 47.566406 C 122.976562 48.691406 124.1875 49.246094 125.539062 49.246094 C 127.171875 49.246094 128.546875 48.691406 129.679688 47.566406 L 142.175781 35.050781 C 143.308594 34.097656 143.867188 32.773438 143.867188 31.09375 C 143.867188 29.683594 143.308594 28.472656 142.175781 27.457031 Z M 142.175781 27.457031 "/>
<path style="fill:none;stroke-width:1;stroke-linecap:round;stroke-linejoin:round;stroke:rgb(36.862745%,45.882353%,52.54902%);stroke-opacity:1;stroke-miterlimit:4;" d="M 84.147186 16.250531 C 83.548397 15.614751 82.764654 15.247155 81.795956 15.150054 C 80.901241 15.150054 80.154489 15.485283 79.551076 16.148806 L 72.051187 23.500732 C 71.385352 24.201246 71.047811 25.001172 71.047811 25.900512 C 71.117168 26.802163 71.484765 27.548915 72.148287 28.152328 C 72.784067 28.818163 73.500764 29.146456 74.300691 29.146456 C 75.267076 29.146456 76.078562 28.818163 76.751333 28.152328 L 84.147186 20.744916 C 84.817644 20.180806 85.14825 19.394751 85.14825 18.402934 C 85.14825 17.568329 84.817644 16.851632 84.147186 16.250531 Z M 85.14825 46.747152 C 84.251222 46.747152 83.497534 47.082381 82.898745 47.745904 C 82.230599 48.381684 81.863002 49.146932 81.795956 50.048583 C 81.795956 50.950234 82.131186 51.71317 82.797021 52.34895 C 83.400433 52.984729 84.184176 53.301463 85.14825 53.301463 L 94.747368 53.301463 C 95.681386 53.301463 96.483625 52.984729 97.14946 52.34895 C 97.745937 51.750161 98.051111 50.987225 98.051111 50.048583 C 98.113533 49.183922 97.812983 48.418675 97.14946 47.745904 C 96.416579 47.082381 95.612029 46.747152 94.747368 46.747152 Z M 81.899993 84.699736 C 82.935736 84.699736 83.76803 84.362195 84.401497 83.698672 C 85.067332 83.102195 85.365571 82.318452 85.296213 81.347443 C 85.296213 80.512837 84.997974 79.800764 84.401497 79.197351 L 77.296948 72.099737 C 76.534012 71.433902 75.768764 71.098673 74.998893 71.098673 C 74.104177 71.098673 73.318122 71.433902 72.647664 72.099737 C 72.014196 72.735517 71.646599 73.516948 71.547187 74.450966 C 71.646599 75.315627 72.014196 76.069315 72.647664 76.702783 L 79.800764 83.698672 C 80.401865 84.362195 81.100067 84.699736 81.899993 84.699736 Z M 53.400876 5.248073 C 53.400876 4.448146 53.102638 3.701394 52.496913 3.003192 C 51.733977 2.332734 50.901684 2.002128 50.000032 2.002128 C 49.165427 2.002128 48.418675 2.332734 47.745904 3.003192 C 47.082381 3.76844 46.747152 4.51288 46.747152 5.248073 L 46.747152 15.198604 C 46.747152 16.162678 47.082381 16.953356 47.745904 17.547521 C 48.418675 18.183301 49.165427 18.500035 50.000032 18.500035 C 50.931739 18.500035 51.766344 18.183301 52.496913 17.547521 C 53.102638 16.953356 53.400876 16.162678 53.400876 15.198604 Z M 66.548802 33.550676 C 61.95038 29.114089 56.434124 26.901576 50.000032 26.901576 C 43.632987 26.901576 38.181465 29.114089 33.650089 33.550676 C 29.114089 38.084364 26.853025 43.568253 26.853025 50.000032 C 26.853025 56.434124 29.114089 61.832472 33.650089 66.199701 C 38.15141 70.733389 43.60062 73.0037 50.000032 73.0037 C 56.496546 73.0037 62.019738 70.733389 66.548802 66.199701 C 71.117168 61.733059 73.39904 56.330087 73.39904 50.000032 C 73.39904 43.669978 71.117168 38.181465 66.548802 33.550676 Z M 27.847154 22.999044 L 21.09864 16.250531 C 20.328769 15.582384 19.551962 15.247155 18.749723 15.247155 C 17.815705 15.247155 17.050457 15.582384 16.447044 16.250531 C 15.714164 16.983411 15.346568 17.748659 15.346568 18.550898 C 15.346568 19.482604 15.714164 20.266347 16.447044 20.899815 L 23.202493 27.648328 C 23.79897 28.251741 24.564218 28.549979 25.50286 28.549979 C 26.436878 28.549979 27.213686 28.251741 27.847154 27.648328 C 28.450566 27.051851 28.748805 26.249612 28.748805 25.248548 C 28.748805 24.453246 28.450566 23.699558 27.847154 22.999044 Z M 15.850567 46.747152 L 5.296623 46.747152 C 4.334862 46.747152 3.562679 47.033831 3.003192 47.600253 C 2.332734 48.270712 2.002128 49.066014 2.002128 50.000032 C 2.002128 50.931739 2.332734 51.685427 3.003192 52.251849 C 3.562679 52.915372 4.334862 53.250601 5.296623 53.250601 L 15.850567 53.250601 C 16.784586 53.250601 17.579888 52.915372 18.252659 52.251849 C 18.886127 51.616069 19.198237 50.869317 19.198237 50.000032 C 19.198237 49.135372 18.886127 48.330822 18.252659 47.600253 C 17.649246 47.033831 16.851632 46.747152 15.850567 46.747152 Z M 27.599777 72.347113 C 27.031044 71.783003 26.249612 71.498636 25.248548 71.498636 C 24.31453 71.498636 23.551594 71.819994 22.952805 72.448838 L 16.100256 79.197351 C 15.464476 79.934856 15.138494 80.700103 15.101503 81.502342 C 15.166237 82.367002 15.503779 83.102195 16.100256 83.698672 C 16.59732 84.401497 17.399558 84.750598 18.500035 84.750598 C 19.394751 84.750598 20.180806 84.419993 20.851264 83.747222 L 27.599777 77.100434 C 28.200878 76.434599 28.501429 75.683223 28.501429 74.850929 C 28.501429 73.884544 28.200878 73.052251 27.599777 72.347113 Z M 53.400876 84.352947 C 53.470234 83.388874 53.16506 82.547332 52.496913 81.851443 C 51.83339 81.384433 51.001097 81.100067 50.000032 80.998342 C 49.135372 81.100067 48.432546 81.414489 47.896179 81.953167 C 47.230345 82.584323 46.853501 83.388874 46.747152 84.352947 L 46.747152 94.747368 C 46.81651 95.720689 47.151739 96.504432 47.745904 97.098597 C 48.351629 97.695074 49.098381 98.000249 50.000032 98.000249 C 51.068142 98.000249 51.900436 97.695074 52.496913 97.098597 C 53.16506 96.435074 53.500289 95.632836 53.500289 94.698818 Z M 53.400876 84.352947 " transform="matrix(1.689608,0,0,1.689608,0,0)"/>
</g>
</svg>
