<?xml version="1.0" encoding="UTF-8"?>
<svg xmlns="http://www.w3.org/2000/svg" xmlns:xlink="http://www.w3.org/1999/xlink" width="170pt" height="170pt" viewBox="0 0 170 170" version="1.1">
<g id="surface1">
<path style=" stroke:none;fill-rule:nonzero;fill:rgb(98.823529%,80%,49.411765%);fill-opacity:1;" d="M 139.988281 140.238281 C 153.953125 126.109375 161.496094 109.148438 162.632812 89.375 C 160.65625 92.875 157.925781 96.476562 154.4375 100.1875 C 144.917969 109.71875 133.453125 114.476562 120.046875 114.476562 C 106.417969 114.476562 94.839844 109.71875 85.328125 100.1875 C 75.746094 90.785156 70.964844 79.164062 70.964844 65.304688 C 70.964844 51.960938 75.746094 40.292969 85.328125 30.324219 C 94.839844 20.804688 106.417969 16.042969 120.046875 16.042969 L 124.945312 16.140625 C 112.722656 8.867188 99.261719 5.242188 84.5625 5.242188 C 62.886719 5.242188 44.300781 12.976562 28.808594 28.472656 C 13.710938 43.902344 6.191406 62.539062 6.253906 84.394531 C 6.191406 106.082031 13.710938 124.699219 28.808594 140.238281 C 44.300781 155.558594 62.886719 163.21875 84.5625 163.21875 C 106.082031 163.21875 124.554688 155.558594 139.988281 140.238281 Z M 139.988281 140.238281 "/>
<path style="fill:none;stroke-width:1;stroke-linecap:round;stroke-linejoin:round;stroke:rgb(36.862745%,45.882353%,52.54902%);stroke-opacity:1;stroke-miterlimit:4;" d="M 71.047811 9.495082 L 73.946966 9.55288 C 66.71526 5.248073 58.748362 3.102605 50.048583 3.102605 C 37.219703 3.102605 26.219557 7.68022 17.050457 16.851632 C 8.114862 25.983741 3.664403 37.01163 3.701394 49.94917 C 3.664403 62.784986 8.114862 73.803627 17.050457 83.00047 C 26.219557 92.067845 37.219703 96.601533 50.048583 96.601533 C 62.784986 96.601533 73.718086 92.067845 82.852507 83.00047 C 91.117644 74.631296 95.581974 64.599848 96.254744 52.896876 C 95.084909 54.968362 93.468873 57.099958 91.404323 59.296289 C 85.770158 64.937389 78.984654 67.753315 71.047811 67.753315 C 62.983811 67.753315 56.131261 64.937389 50.501721 59.296289 C 44.830565 53.731482 42.000767 46.853501 42.000767 38.650786 C 42.000767 30.753245 44.830565 23.847521 50.501721 17.947485 C 56.131261 12.31332 62.983811 9.495082 71.047811 9.495082 Z M 71.047811 9.495082 " transform="matrix(1.689608,0,0,1.689608,0,0)"/>
</g>
</svg>
