<?xml version="1.0" encoding="UTF-8"?>
<svg xmlns="http://www.w3.org/2000/svg" xmlns:xlink="http://www.w3.org/1999/xlink" width="170pt" height="170pt" viewBox="0 0 170 170" version="1.1">
<g id="surface1">
<path style=" stroke:none;fill-rule:nonzero;fill:rgb(36.862745%,45.882353%,52.54902%);fill-opacity:1;" d="M 62.851562 67.75 C 52.9375 67.75 44.457031 71.335938 37.425781 78.476562 C 33.652344 82.359375 30.894531 86.601562 29.144531 91.246094 L 27.875 91.246094 C 20.722656 91.246094 14.554688 93.828125 9.375 99.011719 C 4.367188 104.242188 1.871094 110.527344 1.859375 117.851562 C 1.871094 125.351562 4.367188 131.601562 9.375 136.605469 C 13.921875 141.324219 19.335938 143.917969 25.597656 144.382812 L 101.289062 144.382812 C 101.332031 144.382812 101.363281 144.382812 101.375 144.382812 C 106.144531 143.675781 110.285156 141.554688 113.792969 138.035156 C 118.070312 133.652344 120.207031 128.328125 120.214844 122.074219 C 120.214844 115.875 118.070312 110.609375 113.792969 106.269531 C 109.488281 101.898438 104.359375 99.703125 98.421875 99.683594 C 97.425781 91.589844 94.015625 84.519531 88.199219 78.476562 C 81.160156 71.335938 72.722656 67.75 62.851562 67.75 M 38.605469 79.667969 C 45.320312 72.847656 53.398438 69.445312 62.851562 69.445312 C 72.246094 69.445312 80.308594 72.847656 87.011719 79.667969 C 92.726562 85.605469 95.992188 92.582031 96.8125 100.621094 C 96.847656 100.828125 96.929688 101.007812 97.066406 101.121094 C 97.246094 101.289062 97.445312 101.375 97.652344 101.375 L 98.335938 101.375 C 103.84375 101.375 108.605469 103.402344 112.617188 107.460938 C 116.558594 111.472656 118.53125 116.335938 118.519531 122.074219 C 118.53125 127.875 116.558594 132.800781 112.617188 136.855469 C 109.371094 140.09375 105.535156 142.050781 101.121094 142.691406 L 25.679688 142.691406 C 19.839844 142.25 14.792969 139.820312 10.558594 135.429688 C 5.875 130.730469 3.539062 124.878906 3.554688 117.851562 C 3.539062 110.988281 5.875 105.09375 10.558594 100.1875 C 15.382812 95.367188 21.132812 92.949219 27.789062 92.925781 L 29.648438 93.011719 C 29.851562 93.03125 30.019531 92.980469 30.15625 92.84375 C 30.355469 92.769531 30.460938 92.632812 30.496094 92.421875 C 32.171875 87.769531 34.875 83.523438 38.605469 79.667969 M 80.171875 67.082031 C 80.265625 67.28125 80.410156 67.417969 80.589844 67.5 C 84.835938 69.484375 88.671875 72.246094 92.085938 75.78125 C 97.699219 81.515625 101.3125 88.050781 102.898438 95.375 C 102.941406 95.550781 103.023438 95.703125 103.148438 95.804688 C 103.289062 95.953125 103.425781 96.027344 103.570312 96.054688 C 108.949219 96.867188 113.710938 99.375 117.851562 103.570312 C 120.515625 106.3125 122.546875 109.601562 123.933594 113.457031 C 124.039062 113.667969 124.175781 113.8125 124.355469 113.875 C 124.53125 114.015625 124.699219 114.066406 124.859375 114.046875 C 125.089844 114.003906 125.257812 113.902344 125.371094 113.710938 C 131.058594 107.449219 133.90625 100.007812 133.90625 91.414062 C 133.894531 82.394531 130.691406 74.570312 124.269531 67.917969 C 117.859375 61.5 110.21875 58.292969 101.375 58.292969 C 93.335938 58.292969 86.328125 60.878906 80.335938 66.058594 C 80.210938 66.21875 80.128906 66.386719 80.085938 66.574219 C 80.054688 66.765625 80.074219 66.929688 80.171875 67.082031 M 93.265625 74.589844 C 90.015625 71.25 86.410156 68.570312 82.449219 66.574219 C 87.882812 62.171875 94.195312 59.976562 101.375 59.984375 C 109.757812 59.984375 116.996094 63.023438 123.09375 69.105469 C 129.175781 75.410156 132.214844 82.851562 132.214844 91.414062 C 132.214844 99.105469 129.816406 105.839844 125.027344 111.597656 C 123.574219 108.046875 121.570312 104.96875 119.035156 102.394531 C 114.769531 98.066406 109.894531 95.414062 104.421875 94.449219 C 102.710938 87.042969 98.988281 80.425781 93.265625 74.589844 M 71.722656 60.828125 C 72.742188 59.671875 73.246094 58.402344 73.246094 57.023438 C 73.246094 55.425781 72.730469 54.136719 71.722656 53.136719 L 62.519531 43.761719 C 61.46875 42.628906 60.195312 42.0625 58.71875 42.070312 C 57.183594 42.082031 55.921875 42.640625 54.910156 43.761719 L 54.828125 43.761719 C 53.820312 44.84375 53.304688 46.117188 53.304688 47.566406 C 53.304688 49.027344 53.839844 50.300781 54.910156 51.359375 L 64.296875 60.910156 L 64.210938 60.910156 C 65.195312 61.929688 66.40625 62.4375 67.835938 62.4375 C 69.359375 62.4375 70.664062 61.929688 71.722656 60.910156 C 71.746094 60.910156 71.746094 60.878906 71.722656 60.828125 M 70.449219 59.722656 L 70.546875 59.640625 C 69.800781 60.378906 68.898438 60.742188 67.835938 60.742188 C 66.910156 60.742188 66.109375 60.398438 65.46875 59.722656 L 56.097656 50.183594 C 55.363281 49.445312 54.996094 48.578125 54.996094 47.566406 C 54.996094 46.546875 55.363281 45.671875 56.097656 44.941406 L 56.097656 44.855469 C 56.804688 44.121094 57.671875 43.75 58.71875 43.761719 C 59.714844 43.777344 60.550781 44.164062 61.246094 44.941406 L 61.332031 44.941406 L 70.546875 54.324219 C 71.21875 55.015625 71.554688 55.921875 71.554688 57.023438 C 71.554688 58.011719 71.1875 58.90625 70.449219 59.722656 M 106.785156 28.980469 C 106.773438 27.445312 106.25 26.152344 105.175781 25.089844 L 105.09375 25.007812 C 103.941406 23.980469 102.695312 23.476562 101.375 23.484375 C 99.945312 23.476562 98.707031 24.007812 97.652344 25.089844 L 97.75 25.007812 C 96.5625 26.039062 95.972656 27.363281 95.972656 28.980469 L 95.972656 42.914062 C 95.964844 44.464844 96.550781 45.738281 97.75 46.71875 L 97.652344 46.71875 C 98.644531 47.734375 99.882812 48.238281 101.375 48.238281 C 102.847656 48.238281 104.105469 47.734375 105.175781 46.71875 C 106.25 45.644531 106.785156 44.382812 106.785156 42.914062 L 106.785156 28.980469 M 103.992188 26.265625 C 104.738281 27.035156 105.09375 27.941406 105.09375 28.980469 L 105.09375 42.914062 C 105.09375 43.921875 104.726562 44.804688 103.992188 45.527344 L 103.992188 45.453125 C 103.265625 46.179688 102.394531 46.546875 101.375 46.546875 C 100.394531 46.546875 99.578125 46.203125 98.925781 45.527344 C 98.925781 45.519531 98.90625 45.484375 98.84375 45.453125 C 98.066406 44.804688 97.667969 43.949219 97.652344 42.914062 L 97.652344 28.980469 C 97.652344 27.886719 98.054688 26.984375 98.84375 26.265625 C 98.90625 26.289062 98.925781 26.289062 98.925781 26.265625 C 99.628906 25.550781 100.4375 25.183594 101.375 25.175781 C 102.289062 25.183594 103.164062 25.550781 103.992188 26.265625 M 138.886719 121.820312 L 138.886719 121.738281 C 137.8125 120.769531 136.574219 120.289062 135.167969 120.296875 C 133.695312 120.308594 132.453125 120.8125 131.449219 121.820312 L 131.371094 121.820312 C 130.351562 122.933594 129.816406 124.230469 129.765625 125.710938 C 129.753906 125.773438 129.753906 125.835938 129.765625 125.875 C 129.890625 127.253906 130.457031 128.445312 131.449219 129.429688 L 141.164062 139.304688 C 142.238281 140.375 143.359375 140.945312 144.550781 140.996094 L 144.632812 140.996094 C 146.175781 141.007812 147.472656 140.4375 148.511719 139.304688 L 148.429688 139.304688 C 149.613281 138.316406 150.152344 137.054688 150.035156 135.5 L 150.035156 135.429688 C 150.011719 133.988281 149.507812 132.78125 148.511719 131.792969 L 138.886719 121.820312 M 137.710938 123 L 147.332031 132.96875 C 148.015625 133.652344 148.351562 134.503906 148.339844 135.5 L 148.339844 135.597656 C 148.4375 136.59375 148.101562 137.414062 147.332031 138.035156 C 147.332031 138.074219 147.304688 138.109375 147.25 138.128906 C 146.554688 138.894531 145.683594 139.296875 144.632812 139.304688 C 143.847656 139.253906 143.078125 138.855469 142.351562 138.128906 L 132.632812 128.242188 C 131.9375 127.550781 131.550781 126.707031 131.449219 125.710938 C 131.519531 124.691406 131.917969 123.789062 132.632812 123 C 133.316406 122.328125 134.167969 121.992188 135.167969 121.992188 C 136.132812 122.003906 136.972656 122.335938 137.710938 123 M 167.445312 91.667969 C 167.445312 90.152344 166.929688 88.828125 165.921875 87.691406 C 165.921875 87.691406 165.890625 87.664062 165.835938 87.609375 C 164.742188 86.644531 163.480469 86.171875 162.035156 86.171875 L 149.027344 86.171875 C 147.703125 86.160156 146.453125 86.644531 145.308594 87.609375 L 145.308594 87.691406 C 144.183594 88.820312 143.613281 90.144531 143.613281 91.667969 C 143.613281 93.179688 144.152344 94.386719 145.21875 95.289062 C 145.273438 95.351562 145.308594 95.375 145.308594 95.375 C 146.335938 96.507812 147.574219 97.066406 149.027344 97.066406 L 162.035156 97.066406 C 163.433594 97.011719 164.691406 96.445312 165.835938 95.375 L 165.921875 95.375 C 166.929688 94.378906 167.433594 93.136719 167.445312 91.667969 M 164.652344 88.789062 C 164.703125 88.847656 164.734375 88.871094 164.734375 88.871094 C 165.417969 89.691406 165.753906 90.613281 165.753906 91.667969 C 165.765625 92.644531 165.417969 93.464844 164.734375 94.113281 L 164.734375 94.195312 C 163.90625 94.925781 163 95.3125 162.035156 95.375 L 149.027344 95.375 C 148.035156 95.375 147.1875 94.988281 146.492188 94.195312 C 146.492188 94.195312 146.460938 94.167969 146.398438 94.113281 C 145.671875 93.503906 145.308594 92.695312 145.308594 91.667969 C 145.308594 90.613281 145.671875 89.679688 146.398438 88.871094 L 146.492188 88.871094 C 147.269531 88.207031 148.113281 87.871094 149.027344 87.863281 L 162.035156 87.863281 C 163.019531 87.863281 163.894531 88.175781 164.652344 88.789062 M 148.257812 51.277344 C 149.332031 50.226562 149.863281 48.902344 149.863281 47.3125 C 149.875 45.898438 149.339844 44.667969 148.257812 43.59375 C 147.207031 42.53125 145.945312 41.964844 144.464844 41.902344 C 143.121094 41.890625 141.878906 42.449219 140.746094 43.59375 L 130.523438 53.890625 C 129.585938 55.015625 129.050781 56.289062 128.914062 57.695312 C 128.914062 57.769531 128.914062 57.824219 128.914062 57.863281 C 129.113281 59.324219 129.648438 60.53125 130.523438 61.5 L 130.605469 61.5 C 131.675781 62.570312 132.917969 63.105469 134.324219 63.105469 C 135.851562 63.105469 137.144531 62.570312 138.203125 61.5 L 148.257812 51.277344 M 148.175781 47.3125 C 148.1875 48.417969 147.816406 49.355469 147.078125 50.101562 L 137.027344 60.324219 C 136.289062 61.058594 135.386719 61.414062 134.324219 61.414062 C 133.371094 61.414062 132.515625 61.046875 131.792969 60.324219 C 131.164062 59.617188 130.773438 58.746094 130.605469 57.695312 C 130.730469 56.742188 131.121094 55.867188 131.792969 55.082031 L 141.933594 44.773438 C 142.699219 44.011719 143.511719 43.613281 144.382812 43.59375 C 145.433594 43.636719 146.335938 44.023438 147.078125 44.773438 C 147.804688 45.507812 148.175781 46.347656 148.175781 47.3125 Z M 148.175781 47.3125 "/>
<path style=" stroke:none;fill-rule:nonzero;fill:rgb(69.803922%,92.54902%,94.901961%);fill-opacity:1;" d="M 62.851562 69.445312 C 53.398438 69.445312 45.320312 72.847656 38.605469 79.667969 C 34.875 83.523438 32.171875 87.769531 30.496094 92.421875 C 30.460938 92.632812 30.355469 92.769531 30.15625 92.84375 C 30.019531 92.980469 29.851562 93.03125 29.648438 93.011719 L 27.789062 92.925781 C 21.132812 92.949219 15.382812 95.367188 10.558594 100.1875 C 5.875 105.09375 3.539062 110.988281 3.554688 117.851562 C 3.539062 124.878906 5.875 130.730469 10.558594 135.429688 C 14.792969 139.820312 19.839844 142.25 25.679688 142.691406 L 101.121094 142.691406 C 105.535156 142.050781 109.371094 140.09375 112.617188 136.855469 C 116.558594 132.800781 118.53125 127.875 118.519531 122.074219 C 118.53125 116.335938 116.558594 111.472656 112.617188 107.460938 C 108.605469 103.402344 103.84375 101.375 98.335938 101.375 L 97.652344 101.375 C 97.445312 101.375 97.246094 101.289062 97.066406 101.121094 C 96.929688 101.007812 96.847656 100.828125 96.8125 100.621094 C 95.992188 92.582031 92.726562 85.605469 87.011719 79.667969 C 80.308594 72.847656 72.246094 69.445312 62.851562 69.445312 Z M 62.851562 69.445312 "/>
<path style=" stroke:none;fill-rule:nonzero;fill:rgb(98.823529%,80%,49.411765%);fill-opacity:1;" d="M 82.449219 66.574219 C 86.410156 68.570312 90.015625 71.25 93.265625 74.589844 C 98.988281 80.425781 102.710938 87.042969 104.421875 94.449219 C 109.894531 95.414062 114.769531 98.066406 119.035156 102.394531 C 121.570312 104.96875 123.574219 108.046875 125.027344 111.597656 C 129.816406 105.839844 132.214844 99.105469 132.214844 91.414062 C 132.214844 82.851562 129.175781 75.410156 123.09375 69.105469 C 116.996094 63.023438 109.757812 59.984375 101.375 59.984375 C 94.195312 59.976562 87.882812 62.171875 82.449219 66.574219 M 70.546875 59.640625 L 70.449219 59.722656 C 71.1875 58.90625 71.554688 58.011719 71.554688 57.023438 C 71.554688 55.921875 71.21875 55.015625 70.546875 54.324219 L 61.332031 44.941406 L 61.246094 44.941406 C 60.550781 44.164062 59.714844 43.777344 58.71875 43.761719 C 57.671875 43.75 56.804688 44.121094 56.097656 44.855469 L 56.097656 44.941406 C 55.363281 45.671875 54.996094 46.546875 54.996094 47.566406 C 54.996094 48.578125 55.363281 49.445312 56.097656 50.183594 L 65.46875 59.722656 C 66.109375 60.398438 66.910156 60.742188 67.835938 60.742188 C 68.898438 60.742188 69.800781 60.378906 70.546875 59.640625 M 103.992188 26.265625 C 103.164062 25.550781 102.289062 25.183594 101.375 25.175781 C 100.4375 25.183594 99.628906 25.550781 98.925781 26.265625 C 98.925781 26.289062 98.90625 26.289062 98.84375 26.265625 C 98.054688 26.984375 97.652344 27.886719 97.652344 28.980469 L 97.652344 42.914062 C 97.667969 43.949219 98.066406 44.804688 98.84375 45.453125 C 98.90625 45.484375 98.925781 45.519531 98.925781 45.527344 C 99.578125 46.203125 100.394531 46.546875 101.375 46.546875 C 102.394531 46.546875 103.265625 46.179688 103.992188 45.453125 L 103.992188 45.527344 C 104.726562 44.804688 105.09375 43.921875 105.09375 42.914062 L 105.09375 28.980469 C 105.09375 27.941406 104.738281 27.035156 103.992188 26.265625 M 137.710938 123 C 136.972656 122.335938 136.132812 122.003906 135.167969 121.992188 C 134.167969 121.992188 133.316406 122.328125 132.632812 123 C 131.917969 123.789062 131.519531 124.691406 131.449219 125.710938 C 131.550781 126.707031 131.9375 127.550781 132.632812 128.242188 L 142.351562 138.128906 C 143.078125 138.855469 143.847656 139.253906 144.632812 139.304688 C 145.683594 139.296875 146.554688 138.894531 147.25 138.128906 C 147.304688 138.109375 147.332031 138.074219 147.332031 138.035156 C 148.101562 137.414062 148.4375 136.59375 148.339844 135.597656 L 148.339844 135.5 C 148.351562 134.503906 148.015625 133.652344 147.332031 132.96875 L 137.710938 123 M 164.734375 88.871094 C 164.734375 88.871094 164.703125 88.847656 164.652344 88.789062 C 163.894531 88.175781 163.019531 87.863281 162.035156 87.863281 L 149.027344 87.863281 C 148.113281 87.871094 147.269531 88.207031 146.492188 88.871094 L 146.398438 88.871094 C 145.671875 89.679688 145.308594 90.613281 145.308594 91.667969 C 145.308594 92.695312 145.671875 93.503906 146.398438 94.113281 C 146.460938 94.167969 146.492188 94.195312 146.492188 94.195312 C 147.1875 94.988281 148.035156 95.375 149.027344 95.375 L 162.035156 95.375 C 163 95.3125 163.90625 94.925781 164.734375 94.195312 L 164.734375 94.113281 C 165.417969 93.464844 165.765625 92.644531 165.753906 91.667969 C 165.753906 90.613281 165.417969 89.691406 164.734375 88.871094 M 147.078125 50.101562 C 147.816406 49.355469 148.1875 48.417969 148.175781 47.3125 C 148.175781 46.347656 147.804688 45.507812 147.078125 44.773438 C 146.335938 44.023438 145.433594 43.636719 144.382812 43.59375 C 143.511719 43.613281 142.699219 44.011719 141.933594 44.773438 L 131.792969 55.082031 C 131.121094 55.867188 130.730469 56.742188 130.605469 57.695312 C 130.773438 58.746094 131.164062 59.617188 131.792969 60.324219 C 132.515625 61.046875 133.371094 61.414062 134.324219 61.414062 C 135.386719 61.414062 136.289062 61.058594 137.027344 60.324219 Z M 147.078125 50.101562 "/>
</g>
</svg>
