<?xml version="1.0" encoding="UTF-8"?>
<svg xmlns="http://www.w3.org/2000/svg" xmlns:xlink="http://www.w3.org/1999/xlink" width="170pt" height="170pt" viewBox="0 0 170 170" version="1.1">
<g id="surface1">
<path style=" stroke:none;fill-rule:nonzero;fill:rgb(69.803922%,92.54902%,94.901961%);fill-opacity:1;" d="M 137.710938 111.679688 C 137.710938 110.273438 137.542969 108.75 137.195312 107.125 C 136.457031 102.28125 134.210938 98 130.4375 94.28125 C 125.648438 89.4375 119.847656 87.011719 113.039062 87.011719 L 112.269531 87.011719 C 111.3125 77.605469 107.4375 69.445312 100.621094 62.519531 C 95.710938 57.671875 90.226562 54.289062 84.144531 52.378906 C 80.085938 51.078125 75.945312 50.4375 71.722656 50.4375 C 60.34375 50.4375 50.6875 54.460938 42.742188 62.519531 C 38.300781 66.910156 35.050781 71.890625 33.035156 77.46875 L 30.839844 77.386719 C 22.726562 77.386719 15.773438 80.222656 9.972656 85.917969 C 4.222656 91.769531 1.355469 98.761719 1.355469 106.871094 C 1.355469 115.085938 4.222656 122.011719 9.972656 127.652344 C 15.152344 132.886719 21.265625 135.734375 28.304688 136.183594 L 116.578125 136.183594 C 121.757812 135.5 126.382812 133.171875 130.4375 129.175781 C 135.285156 124.386719 137.710938 118.554688 137.710938 111.679688 Z M 137.710938 111.679688 "/>
<path style=" stroke:none;fill-rule:nonzero;fill:rgb(98.823529%,80%,49.411765%);fill-opacity:1;" d="M 164.984375 63.445312 C 160.941406 67.4375 155.980469 69.445312 150.117188 69.445312 C 144.382812 69.445312 139.453125 67.4375 135.332031 63.445312 C 131.226562 59.449219 129.175781 54.460938 129.175781 48.492188 C 129.175781 42.691406 131.226562 37.796875 135.332031 33.789062 C 139.335938 29.734375 144.265625 27.707031 150.117188 27.707031 L 152.230469 27.707031 C 146.996094 24.554688 141.25 22.980469 134.996094 22.980469 C 125.710938 22.980469 117.796875 26.265625 111.261719 32.867188 C 106.082031 38.046875 102.980469 44.011719 101.972656 50.769531 C 104.105469 52.242188 106.300781 54.089844 108.558594 56.351562 C 115.253906 63.054688 119.574219 70.710938 121.472656 79.328125 C 128.019531 80.285156 133.757812 83.21875 138.714844 88.113281 L 140.15625 89.804688 C 147.25 88.789062 153.417969 85.667969 158.660156 80.425781 C 164.617188 74.402344 167.886719 67.183594 168.453125 58.800781 C 167.496094 60.488281 166.339844 62.039062 164.984375 63.445312 Z M 164.984375 63.445312 "/>
<path style="fill:none;stroke-width:1;stroke-linecap:round;stroke-linejoin:round;stroke:rgb(36.862745%,45.882353%,52.54902%);stroke-opacity:1;stroke-miterlimit:4;" d="M 99.699515 34.801428 C 99.133093 35.80018 98.448762 36.718015 97.646524 37.550309 C 95.251368 39.910786 92.317533 41.099116 88.847332 41.099116 C 85.453424 41.099116 82.535773 39.910786 80.09669 37.550309 C 77.666856 35.185208 76.453094 32.232878 76.453094 28.700254 C 76.453094 25.267044 77.666856 22.3702 80.09669 19.998163 C 82.466415 17.598384 85.384066 16.398494 88.847332 16.398494 L 90.098084 16.398494 C 87.000103 14.532769 83.599259 13.601063 79.897865 13.601063 C 74.402416 13.601063 69.718453 15.545393 65.8506 19.452549 C 62.784986 22.518163 60.949316 26.048475 60.352839 30.048108 C 61.615151 30.919704 62.914453 32.013245 64.250747 33.35185 C 68.213389 37.316804 70.770379 41.850492 71.893976 46.950602 C 75.768764 47.517024 79.164984 49.25328 82.098819 52.150124 L 82.95192 53.151188 C 87.150378 52.547775 90.80091 50.702858 93.903515 47.600253 C 97.429203 44.035262 99.364285 39.762822 99.699515 34.801428 Z M 59.552912 37.002382 C 56.646821 34.133282 53.400876 32.131153 49.801207 30.998309 C 47.399115 30.23075 44.948473 29.849282 42.449281 29.849282 C 35.714639 29.849282 29.999557 32.232878 25.297099 37.002382 C 22.666127 39.600987 20.744916 42.548694 19.551962 45.850125 L 18.252659 45.801574 C 13.450788 45.801574 9.333247 47.480033 5.902348 50.850821 C 2.499192 54.314087 0.802238 58.452435 0.802238 63.251995 C 0.802238 68.113976 2.499192 72.213021 5.902348 75.551443 C 8.967963 78.649425 12.586127 80.334819 16.752219 80.60069 L 68.997132 80.60069 C 72.062746 80.196103 74.800067 78.818195 77.199847 76.453094 C 80.068947 73.618673 81.502342 70.166967 81.502342 66.097976 C 81.502342 65.265683 81.405241 64.364031 81.199479 63.40227 C 80.762525 60.535481 79.433168 58.00161 77.199847 55.800656 C 74.365425 52.933867 70.929902 51.498161 66.902526 51.498161 L 66.447077 51.498161 C 65.880655 45.931042 63.587224 41.099116 59.552912 37.002382 Z M 59.552912 37.002382 " transform="matrix(1.689608,0,0,1.689608,0,0)"/>
</g>
</svg>
