<?xml version="1.0" encoding="UTF-8"?>
<svg xmlns="http://www.w3.org/2000/svg" xmlns:xlink="http://www.w3.org/1999/xlink" width="170pt" height="170pt" viewBox="0 0 170 170" version="1.1">
<g id="surface1">
<path style="fill-rule:nonzero;fill:rgb(69.803922%,92.54902%,94.901961%);fill-opacity:1;stroke-width:1;stroke-linecap:round;stroke-linejoin:round;stroke:rgb(36.862745%,45.882353%,52.54902%);stroke-opacity:1;stroke-miterlimit:4;" d="M 93.646891 48.05339 C 90.183625 44.583189 86.017534 42.849244 81.148617 42.849244 L 80.651553 42.849244 C 80.015773 36.179336 77.218342 30.367153 72.250012 25.398824 C 66.516435 19.66987 59.601463 16.796145 51.498161 16.796145 C 43.46884 16.796145 36.546933 19.66987 30.753245 25.398824 C 27.585906 28.670199 25.33409 32.212071 23.997796 36.049869 L 22.451117 36.001318 C 16.578824 36.001318 11.566568 38.033501 7.400476 42.102492 C 3.301431 46.298638 1.24844 51.306271 1.24844 57.099958 C 1.24844 63.002307 3.301431 67.972948 7.400476 72.000324 C 11.062568 75.669351 15.434421 77.733902 20.495228 78.200911 L 82.898745 78.200911 L 83.647809 78.10381 C 87.485607 77.597498 90.812469 75.930599 93.646891 73.100801 C 97.082414 69.669902 98.795551 65.485316 98.795551 60.551665 C 98.795551 55.652693 97.082414 51.484289 93.646891 48.05339 Z M 93.646891 48.05339 " transform="matrix(1.689608,0,0,1.689608,0,0)"/>
</g>
</svg>
