<?xml version="1.0" encoding="UTF-8"?>
<svg xmlns="http://www.w3.org/2000/svg" xmlns:xlink="http://www.w3.org/1999/xlink" width="170pt" height="170pt" viewBox="0 0 170 170" version="1.1">
<g id="surface1">
<path style=" stroke:none;fill-rule:nonzero;fill:rgb(69.803922%,92.54902%,94.901961%);fill-opacity:1;" d="M 167.949219 81.695312 C 167.613281 68.90625 160.992188 62.003906 148.089844 60.992188 C 144.382812 42.742188 133.535156 32.355469 115.570312 29.820312 C 103.632812 28.304688 92.84375 31.679688 83.21875 39.960938 C 104.558594 45.472656 117.546875 57.476562 122.15625 75.945312 C 136.070312 79.265625 145 88.484375 148.941406 103.570312 C 162.0625 101.65625 168.398438 94.367188 167.949219 81.695312 M 101.882812 60.152344 C 93.78125 52.042969 83.921875 47.988281 72.308594 47.988281 C 60.765625 47.988281 50.941406 52.042969 42.828125 60.152344 C 38.332031 64.664062 35.082031 69.777344 33.121094 75.527344 L 30.839844 75.355469 C 22.558594 75.355469 15.402344 78.289062 9.375 84.144531 C 3.582031 90.058594 0.675781 97.210938 0.675781 105.601562 C 0.675781 113.9375 3.582031 121.035156 9.375 126.886719 C 14.667969 132.179688 20.898438 135.085938 28.042969 135.597656 L 117.085938 135.597656 L 118.355469 135.5 C 123.652344 134.832031 128.355469 132.433594 132.464844 128.328125 C 137.425781 123.367188 139.894531 117.398438 139.894531 110.410156 C 139.894531 103.605469 137.425781 97.652344 132.464844 92.589844 C 127.621094 87.746094 121.707031 85.328125 114.730469 85.328125 L 114.046875 85.328125 C 113.039062 75.644531 108.984375 67.246094 101.882812 60.152344 Z M 101.882812 60.152344 "/>
<path style="fill:none;stroke-width:1;stroke-linecap:round;stroke-linejoin:round;stroke:rgb(36.862745%,45.882353%,52.54902%);stroke-opacity:1;stroke-miterlimit:4;" d="M 99.401276 48.351629 C 99.20245 40.782382 95.283735 36.697208 87.647442 36.098419 C 85.453424 25.297099 79.033204 19.149686 68.400655 17.649246 C 61.335408 16.752219 54.949867 18.749723 49.25328 23.648695 C 61.881022 26.913135 69.57049 34.015373 72.298563 44.948473 C 80.533645 46.913611 85.818708 52.369757 88.151442 61.298417 C 95.917203 60.165573 99.667148 55.851518 99.401276 48.351629 Z M 60.299665 35.601355 C 55.504729 30.801796 49.667115 28.402016 42.79607 28.402016 C 35.964327 28.402016 30.149832 30.801796 25.347961 35.601355 C 22.686934 38.269318 20.763411 41.297941 19.600512 44.701097 L 18.252659 44.599372 C 13.351375 44.599372 9.115926 46.335629 5.548623 49.801207 C 2.120037 53.301463 0.399963 57.534601 0.399963 62.500619 C 0.399963 67.43427 2.120037 71.63504 5.548623 75.095994 C 8.681284 78.230966 12.368806 79.951039 16.59732 80.253901 L 69.297682 80.253901 L 70.049058 80.196103 C 73.181719 79.800764 75.96759 78.381241 78.399736 75.951406 C 81.335883 73.012948 82.797021 69.482636 82.797021 65.3466 C 82.797021 61.319224 81.335883 57.795848 78.399736 54.799592 C 75.532948 51.932803 72.030379 50.501721 67.903591 50.501721 L 67.499003 50.501721 C 66.902526 44.770455 64.502747 39.799813 60.299665 35.601355 Z M 60.299665 35.601355 " transform="matrix(1.689608,0,0,1.689608,0,0)"/>
</g>
</svg>
