<?xml version="1.0" encoding="UTF-8"?>
<svg xmlns="http://www.w3.org/2000/svg" xmlns:xlink="http://www.w3.org/1999/xlink" width="170pt" height="170pt" viewBox="0 0 170 170" version="1.1">
<g id="surface1">
<path style=" stroke:none;fill-rule:nonzero;fill:rgb(69.803922%,92.54902%,94.901961%);fill-opacity:1;" d="M 97.488281 163.640625 C 98 165.050781 98.976562 166.089844 100.449219 166.761719 C 101.910156 167.558594 103.351562 167.632812 104.757812 167.027344 C 106.101562 166.628906 107.207031 165.699219 108.046875 164.230469 L 114.308594 150.539062 C 114.972656 149.078125 115.066406 147.585938 114.550781 146.074219 C 114.046875 144.652344 113.125 143.613281 111.765625 142.941406 C 110.191406 142.269531 108.667969 142.175781 107.207031 142.691406 C 105.683594 143.195312 104.589844 144.183594 103.90625 145.644531 L 97.582031 159.164062 C 96.847656 160.675781 96.8125 162.179688 97.488281 163.640625 M 86.421875 108.984375 C 84.792969 109.652344 83.722656 110.695312 83.21875 112.105469 L 76.796875 126.046875 C 76.0625 127.507812 75.945312 128.996094 76.449219 130.523438 C 76.953125 132.046875 77.945312 133.136719 79.414062 133.8125 C 80.875 134.441406 82.394531 134.441406 83.972656 133.8125 C 85.328125 133.472656 86.421875 132.496094 87.265625 130.855469 L 93.683594 116.914062 C 94.195312 115.570312 94.21875 114.109375 93.78125 112.53125 C 93.265625 111.0625 92.285156 109.992188 90.8125 109.320312 C 89.460938 108.648438 88 108.53125 86.421875 108.984375 M 129.933594 116.914062 C 130.4375 115.398438 130.4375 113.9375 129.933594 112.53125 C 129.429688 111.0625 128.445312 109.992188 126.972656 109.320312 C 125.675781 108.648438 124.214844 108.53125 122.578125 108.984375 C 121.003906 109.652344 119.929688 110.695312 119.375 112.105469 L 113.039062 126.046875 C 112.25 127.570312 112.167969 129.0625 112.785156 130.523438 C 113.125 131.929688 114.109375 133.023438 115.738281 133.8125 C 117.195312 134.492188 118.703125 134.492188 120.214844 133.8125 C 121.675781 133.371094 122.746094 132.382812 123.429688 130.855469 L 129.933594 116.914062 M 61.5 159.164062 C 60.660156 160.675781 60.578125 162.179688 61.246094 163.640625 C 61.582031 165.050781 62.570312 166.089844 64.210938 166.761719 C 65.667969 167.558594 67.082031 167.632812 68.433594 167.027344 C 70.007812 166.511719 71.136719 165.585938 71.808594 164.230469 L 78.144531 150.539062 C 78.765625 149.027344 78.847656 147.535156 78.394531 146.074219 C 77.777344 144.601562 76.816406 143.558594 75.527344 142.941406 C 74.003906 142.269531 72.480469 142.175781 70.964844 142.691406 C 69.492188 143.195312 68.371094 144.183594 67.582031 145.644531 L 61.5 159.164062 M 30.417969 145.644531 L 24.070312 159.164062 C 23.285156 160.511719 23.199219 162 23.820312 163.640625 C 24.335938 165.050781 25.3125 166.089844 26.78125 166.761719 C 28.191406 167.496094 29.648438 167.582031 31.175781 167.027344 C 32.527344 166.511719 33.589844 165.585938 34.378906 164.230469 L 40.71875 150.539062 C 41.398438 149.078125 41.484375 147.585938 40.96875 146.074219 C 40.347656 144.652344 39.371094 143.613281 38.015625 142.941406 C 36.554688 142.269531 35.050781 142.175781 33.539062 142.691406 C 31.964844 143.246094 30.921875 144.234375 30.417969 145.644531 M 56.433594 112.53125 C 55.75 110.949219 54.742188 109.886719 53.398438 109.320312 C 52.042969 108.648438 50.570312 108.53125 48.992188 108.984375 C 47.367188 109.652344 46.296875 110.695312 45.789062 112.105469 L 39.277344 126.046875 C 38.605469 127.507812 38.519531 128.996094 39.023438 130.523438 C 39.539062 131.929688 40.582031 133.023438 42.152344 133.8125 C 43.511719 134.441406 45.003906 134.441406 46.632812 133.8125 C 48.101562 133.371094 49.164062 132.382812 49.847656 130.855469 L 56.171875 116.914062 C 56.804688 115.289062 56.886719 113.828125 56.433594 112.53125 M 160.175781 68.851562 C 160.175781 61.53125 157.503906 55.144531 152.15625 49.679688 C 146.859375 44.4375 140.429688 41.820312 132.886719 41.820312 L 132.296875 41.820312 C 131.226562 31.511719 126.867188 22.496094 119.207031 14.785156 C 110.410156 6.054688 99.828125 1.691406 87.441406 1.691406 C 75.105469 1.691406 64.515625 6.054688 55.667969 14.785156 C 50.886719 19.742188 47.386719 25.238281 45.203125 31.261719 L 42.828125 31.261719 C 33.878906 31.261719 26.214844 34.347656 19.859375 40.546875 C 13.542969 47.03125 10.390625 54.773438 10.390625 63.78125 C 10.390625 72.796875 13.542969 80.402344 19.859375 86.589844 C 25.488281 92.222656 32.164062 95.324219 39.875 95.890625 L 136.945312 95.890625 C 142.804688 95.039062 147.871094 92.507812 152.15625 88.285156 C 157.503906 82.871094 160.175781 76.398438 160.175781 68.851562 Z M 160.175781 68.851562 "/>
<path style="fill:none;stroke-width:1;stroke-linecap:round;stroke-linejoin:round;stroke:rgb(36.862745%,45.882353%,52.54902%);stroke-opacity:1;stroke-miterlimit:4;" d="M 94.798231 40.750015 C 94.798231 36.417465 93.219185 32.637465 90.054158 29.40308 C 86.919185 26.300475 83.113754 24.749172 78.649425 24.749172 L 78.300324 24.749172 C 77.666856 18.65031 75.086746 13.312072 70.553058 8.750641 C 65.3466 3.583486 59.083591 1.001064 51.750161 1.001064 C 44.451409 1.001064 38.181465 3.583486 32.947263 8.750641 C 30.117465 11.684476 28.045979 14.937357 26.753612 18.500035 L 25.347961 18.500035 C 20.051338 18.500035 15.515338 20.328769 11.753834 23.997796 C 8.015449 27.835594 6.149724 32.417832 6.149724 37.749134 C 6.149724 43.085061 8.015449 47.584069 11.753834 51.248473 C 15.080696 54.579959 19.036402 56.41794 23.600145 56.75317 L 81.051516 56.75317 C 84.519406 56.24917 87.515662 54.751041 90.054158 52.251849 C 93.219185 49.047519 94.798231 45.216657 94.798231 40.750015 Z M 31.604034 64.701573 C 30.801796 64.301609 29.930199 64.234563 28.996181 64.502747 C 28.03442 64.898086 27.400952 65.515371 27.100401 66.349976 L 23.24642 74.601241 C 22.848769 75.465902 22.797906 76.346746 23.096145 77.248397 C 23.401319 78.083003 24.018603 78.730342 24.947998 79.197351 C 25.752548 79.567259 26.635704 79.567259 27.599777 79.197351 C 28.469062 78.936103 29.097906 78.348874 29.502493 77.447223 L 33.245502 69.195957 C 33.620034 68.231884 33.668584 67.369536 33.400401 66.601976 C 32.995814 65.663334 32.399337 65.03449 31.604034 64.701573 Z M 14.246091 94.201754 C 13.781393 94.999368 13.730531 95.880212 14.098127 96.851221 C 14.403302 97.685827 14.981283 98.300799 15.850567 98.69845 C 16.685173 99.133093 17.547521 99.181643 18.451485 98.855661 C 19.251411 98.550487 19.880255 98.000249 20.347264 97.200322 L 24.099521 89.09702 C 24.501796 88.23236 24.552658 87.349204 24.247484 86.454488 C 23.879888 85.612947 23.301906 84.997974 22.499668 84.600323 C 21.635007 84.202672 20.744916 84.147186 19.8502 84.450048 C 18.918494 84.780653 18.301209 85.365571 18.002971 86.200176 Z M 36.398969 94.201754 C 35.901905 95.096469 35.853355 95.986561 36.248694 96.851221 C 36.44752 97.685827 37.032437 98.300799 38.003446 98.69845 C 38.865795 99.170083 39.702712 99.21401 40.502639 98.855661 C 41.434345 98.550487 42.102492 98.000249 42.500143 97.200322 L 46.247776 89.09702 C 46.617684 88.202304 46.666235 87.319149 46.398051 86.454488 C 46.032767 85.582892 45.464033 84.965607 44.701097 84.600323 C 43.799446 84.202672 42.897795 84.147186 42.000767 84.450048 C 41.129171 84.750598 40.465648 85.335516 39.998639 86.200176 Z M 76.901608 69.195957 C 77.199847 68.29893 77.199847 67.43427 76.901608 66.601976 C 76.60337 65.732692 76.020764 65.099224 75.146856 64.701573 C 74.381608 64.301609 73.516948 64.234563 72.548251 64.502747 C 71.616544 64.898086 70.980765 65.515371 70.652471 66.349976 L 66.902526 74.601241 C 66.435517 75.502893 66.386967 76.383737 66.752251 77.248397 C 66.951077 78.083003 67.535994 78.730342 68.500068 79.197351 C 69.362416 79.599626 70.252508 79.599626 71.149535 79.197351 C 72.014196 78.936103 72.647664 78.348874 73.052251 77.447223 Z M 55.444619 69.195957 C 55.749793 68.400655 55.763665 67.535994 55.504729 66.601976 C 55.199555 65.732692 54.619261 65.099224 53.747665 64.701573 C 52.947739 64.301609 52.083078 64.234563 51.14906 64.502747 C 50.184987 64.898086 49.549207 65.515371 49.25328 66.349976 L 45.452473 74.601241 C 45.017831 75.465902 44.948473 76.346746 45.246712 77.248397 C 45.54495 78.15236 46.129868 78.797388 47.001464 79.197351 C 47.866124 79.567259 48.765464 79.567259 49.699482 79.197351 C 50.501721 78.996214 51.14906 78.418232 51.648436 77.447223 Z M 57.754234 94.201754 C 57.319591 95.096469 57.298784 95.986561 57.698747 96.851221 C 58.00161 97.685827 58.579591 98.300799 59.451188 98.69845 C 60.315848 99.170083 61.168949 99.21401 62.001242 98.855661 C 62.796545 98.619845 63.45082 98.069606 63.947885 97.200322 L 67.653903 89.09702 C 68.04693 88.23236 68.100104 87.349204 67.797242 86.454488 C 67.499003 85.612947 66.951077 84.997974 66.148838 84.600323 C 65.217132 84.202672 64.315481 84.147186 63.45082 84.450048 C 62.549169 84.750598 61.90183 85.335516 61.497243 86.200176 Z M 57.754234 94.201754 " transform="matrix(1.689608,0,0,1.689608,0,0)"/>
</g>
</svg>
