<?xml version="1.0" encoding="UTF-8"?>
<svg xmlns="http://www.w3.org/2000/svg" xmlns:xlink="http://www.w3.org/1999/xlink" width="170pt" height="170pt" viewBox="0 0 170 170" version="1.1">
<g id="surface1">
<path style=" stroke:none;fill-rule:nonzero;fill:rgb(100%,85.882353%,25.098039%);fill-opacity:1;" d="M 95.804688 114.382812 C 96.476562 114.550781 97.148438 114.644531 97.824219 114.644531 C 98.5625 114.644531 99.210938 114.550781 99.765625 114.382812 L 95.804688 114.382812 M 26.78125 114.382812 C 27.457031 114.550781 28.160156 114.644531 28.898438 114.644531 C 29.734375 114.644531 30.496094 114.550781 31.175781 114.382812 Z M 26.78125 114.382812 "/>
<path style=" stroke:none;fill-rule:nonzero;fill:rgb(69.803922%,92.54902%,94.901961%);fill-opacity:1;" d="M 97.824219 73.078125 L 97.234375 73.078125 C 96.394531 65.195312 93.09375 58.378906 87.347656 52.628906 C 80.707031 45.871094 72.660156 42.488281 63.191406 42.488281 C 53.671875 42.488281 45.5625 45.871094 38.859375 52.628906 C 35.144531 56.234375 32.464844 60.378906 30.839844 65.050781 L 28.898438 65.050781 C 22.140625 65.050781 16.304688 67.4375 11.402344 72.226562 C 6.621094 77.125 4.222656 82.957031 4.222656 89.722656 C 4.222656 96.648438 6.621094 102.507812 11.402344 107.289062 C 15.6875 111.566406 20.804688 113.9375 26.78125 114.382812 L 100.785156 114.382812 C 105.230469 113.765625 109.121094 111.796875 112.441406 108.46875 C 116.492188 104.421875 118.519531 99.515625 118.519531 93.78125 C 118.519531 88.082031 116.492188 83.21875 112.441406 79.164062 C 108.382812 75.105469 103.515625 73.078125 97.824219 73.078125 M 70.882812 162.789062 C 70.367188 163.695312 70.285156 164.816406 70.621094 166.171875 C 71.070312 167.296875 71.871094 168.085938 72.996094 168.535156 C 74.058594 168.988281 75.15625 169.054688 76.285156 168.703125 C 77.351562 168.371094 78.207031 167.664062 78.8125 166.59375 L 83.628906 156.203125 C 84.089844 154.960938 84.109375 153.835938 83.722656 152.828125 C 83.386719 151.640625 82.648438 150.800781 81.527344 150.296875 C 80.402344 149.78125 79.265625 149.730469 78.144531 150.117188 C 77.070312 150.570312 76.230469 151.324219 75.609375 152.398438 L 70.882812 162.789062 M 93.265625 124.605469 C 92.023438 124.164062 90.929688 124.132812 89.972656 124.523438 C 88.734375 124.859375 87.894531 125.59375 87.441406 126.71875 L 82.449219 137.445312 C 81.945312 138.570312 81.914062 139.703125 82.367188 140.832031 C 82.648438 141.898438 83.386719 142.742188 84.5625 143.359375 C 85.804688 143.8125 86.988281 143.867188 88.113281 143.53125 C 89.238281 142.960938 90.027344 142.152344 90.476562 141.082031 L 95.460938 130.4375 C 95.859375 129.367188 95.859375 128.242188 95.460938 127.054688 C 95.125 125.929688 94.386719 125.109375 93.265625 124.605469 M 50.4375 150.117188 C 49.363281 150.515625 48.578125 151.273438 48.070312 152.398438 L 43.257812 162.789062 C 42.691406 163.808594 42.605469 164.933594 42.996094 166.171875 C 43.445312 167.242188 44.183594 168.035156 45.203125 168.535156 C 46.378906 168.988281 47.503906 169.054688 48.578125 168.703125 C 49.648438 168.421875 50.488281 167.726562 51.105469 166.59375 L 55.832031 156.203125 C 56.402344 155.023438 56.488281 153.898438 56.097656 152.828125 C 55.699219 151.640625 54.941406 150.800781 53.820312 150.296875 C 52.800781 149.78125 51.675781 149.730469 50.4375 150.117188 M 14.617188 162.789062 C 14.109375 163.859375 14.082031 164.984375 14.53125 166.171875 C 14.867188 167.242188 15.601562 168.035156 16.726562 168.535156 C 17.851562 168.988281 18.957031 169.054688 20.027344 168.703125 C 21.148438 168.371094 21.992188 167.664062 22.558594 166.59375 L 27.375 156.203125 C 27.875 155.023438 27.960938 153.898438 27.625 152.828125 C 27.121094 151.589844 26.382812 150.738281 25.425781 150.296875 C 24.1875 149.78125 23.03125 149.730469 21.96875 150.117188 C 20.734375 150.570312 19.910156 151.324219 19.511719 152.398438 L 14.617188 162.789062 M 31.261719 126.71875 L 26.363281 137.445312 C 25.847656 138.632812 25.796875 139.757812 26.195312 140.832031 C 26.53125 141.898438 27.285156 142.742188 28.472656 143.359375 C 29.601562 143.8125 30.722656 143.867188 31.847656 143.53125 C 32.96875 143.023438 33.824219 142.207031 34.378906 141.082031 L 39.277344 130.4375 C 39.675781 129.367188 39.675781 128.242188 39.277344 127.054688 C 38.941406 125.929688 38.214844 125.109375 37.089844 124.605469 C 35.847656 124.164062 34.714844 124.132812 33.707031 124.523438 C 32.527344 124.859375 31.710938 125.59375 31.261719 126.71875 M 65.558594 124.605469 C 64.378906 124.164062 63.242188 124.132812 62.183594 124.523438 C 61.046875 124.859375 60.269531 125.59375 59.808594 126.71875 L 54.910156 137.445312 C 54.289062 138.632812 54.238281 139.757812 54.742188 140.832031 C 55.082031 141.898438 55.832031 142.742188 57.023438 143.359375 C 58.09375 143.8125 59.21875 143.867188 60.398438 143.53125 C 61.46875 143.023438 62.285156 142.207031 62.851562 141.082031 L 67.835938 130.4375 C 68.234375 129.367188 68.265625 128.242188 67.917969 127.054688 C 67.417969 125.929688 66.625 125.109375 65.558594 124.605469 Z M 65.558594 124.605469 "/>
<path style=" stroke:none;fill-rule:nonzero;fill:rgb(98.823529%,80%,49.411765%);fill-opacity:1;" d="M 100.871094 33.371094 C 93.265625 33.371094 86.570312 35.785156 80.761719 40.628906 C 84.816406 42.488281 88.734375 45.222656 92.507812 48.828125 C 98.023438 54.523438 101.574219 60.929688 103.148438 68.085938 C 108.613281 68.878906 113.40625 71.355469 117.511719 75.527344 C 120.445312 78.460938 122.554688 81.726562 123.851562 85.328125 C 129.195312 79.351562 131.875 72.363281 131.875 64.378906 C 131.875 55.8125 128.832031 48.523438 122.746094 42.488281 C 116.660156 36.40625 109.371094 33.371094 100.871094 33.371094 M 71.304688 34.464844 C 72.144531 33.625 72.5625 32.554688 72.5625 31.261719 C 72.5625 30.070312 72.144531 29.082031 71.304688 28.304688 L 62.183594 19.261719 C 61.332031 18.355469 60.324219 17.902344 59.132812 17.902344 C 57.894531 17.902344 56.855469 18.355469 56.003906 19.261719 C 55.164062 20.046875 54.742188 21.035156 54.742188 22.222656 C 54.742188 23.453125 55.164062 24.503906 56.003906 25.34375 L 65.050781 34.464844 C 65.890625 35.3125 66.910156 35.738281 68.085938 35.738281 C 69.390625 35.738281 70.449219 35.3125 71.304688 34.464844 M 105.175781 17.738281 L 105.175781 4.394531 C 105.175781 3.152344 104.789062 2.164062 103.992188 1.441406 C 103.148438 0.484375 102.109375 0 100.871094 0 C 99.683594 0 98.671875 0.484375 97.824219 1.441406 C 96.984375 2.226562 96.5625 3.214844 96.5625 4.394531 L 96.5625 17.738281 C 96.5625 19.039062 96.984375 20.109375 97.824219 20.953125 C 98.671875 21.792969 99.683594 22.222656 100.871094 22.222656 C 102.109375 22.222656 103.148438 21.792969 103.992188 20.953125 C 104.789062 20.164062 105.175781 19.09375 105.175781 17.738281 M 143.277344 111.09375 C 144.582031 111.09375 145.671875 110.644531 146.578125 109.738281 C 147.417969 108.894531 147.835938 107.859375 147.835938 106.617188 C 147.835938 105.484375 147.417969 104.507812 146.578125 103.652344 L 137.109375 94.195312 C 136.214844 93.355469 135.167969 92.925781 133.988281 92.925781 C 132.800781 92.925781 131.792969 93.355469 130.941406 94.195312 C 129.988281 95.039062 129.511719 96.078125 129.511719 97.320312 C 129.511719 98.445312 129.988281 99.429688 130.941406 100.285156 L 140.328125 109.738281 C 141.230469 110.644531 142.207031 111.09375 143.277344 111.09375 M 163.554688 61.414062 C 162.652344 60.578125 161.582031 60.152344 160.339844 60.152344 L 147.503906 60.152344 C 146.375 60.152344 145.390625 60.578125 144.550781 61.414062 C 143.695312 62.257812 143.195312 63.335938 143.023438 64.628906 C 143.023438 65.757812 143.496094 66.742188 144.464844 67.582031 C 145.308594 68.488281 146.328125 68.941406 147.503906 68.941406 L 160.339844 68.941406 C 161.476562 68.941406 162.539062 68.488281 163.554688 67.582031 C 164.34375 66.679688 164.734375 65.691406 164.734375 64.628906 C 164.734375 63.273438 164.34375 62.203125 163.554688 61.414062 M 146.242188 25.175781 C 147.195312 24.335938 147.617188 23.316406 147.503906 22.140625 C 147.566406 21.003906 147.132812 20.027344 146.242188 19.175781 C 145.390625 18.273438 144.316406 17.765625 143.023438 17.648438 C 141.953125 17.648438 140.964844 18.105469 140.066406 19.007812 L 130.1875 28.980469 C 129.230469 29.820312 128.726562 30.859375 128.664062 32.109375 C 128.832031 33.285156 129.34375 34.296875 130.1875 35.144531 C 131.035156 35.988281 132.011719 36.40625 133.136719 36.40625 C 134.378906 36.40625 135.429688 35.988281 136.269531 35.144531 Z M 146.242188 25.175781 "/>
<path style="fill:none;stroke-width:1;stroke-linecap:round;stroke-linejoin:round;stroke:rgb(36.862745%,45.882353%,52.54902%);stroke-opacity:1;stroke-miterlimit:4;" d="M 86.553901 14.900366 C 87.118011 14.403302 87.367699 13.799889 87.300653 13.103999 C 87.337644 12.431228 87.08102 11.853247 86.553901 11.346935 C 86.049901 10.815192 85.414121 10.514641 84.648874 10.445284 C 84.015406 10.445284 83.430488 10.715779 82.898745 11.249834 L 77.051883 17.152182 C 76.485461 17.649246 76.187223 18.264219 76.14792 18.999411 C 76.249645 19.699925 76.552507 20.298714 77.051883 20.800402 C 77.553571 21.299778 78.131553 21.547154 78.797388 21.547154 C 79.530269 21.547154 80.154489 21.299778 80.651553 20.800402 Z M 96.800359 36.348107 C 96.266304 35.853355 95.632836 35.601355 94.897643 35.601355 L 87.300653 35.601355 C 86.632506 35.601355 86.049901 35.853355 85.550525 36.348107 C 85.046525 36.845171 84.750598 37.485575 84.648874 38.250822 C 84.648874 38.918969 84.928617 39.501575 85.501974 39.998639 C 86.001351 40.535006 86.602451 40.803189 87.300653 40.803189 L 94.897643 40.803189 C 95.570414 40.803189 96.199258 40.535006 96.800359 39.998639 C 97.267368 39.464584 97.498561 38.879666 97.498561 38.250822 C 97.498561 37.448584 97.267368 36.815116 96.800359 36.348107 Z M 84.799149 65.751187 C 85.571332 65.751187 86.21636 65.485316 86.752727 64.948949 C 87.249791 64.449573 87.497167 63.836912 87.497167 63.101719 C 87.497167 62.431261 87.249791 61.850967 86.752727 61.346967 L 81.148617 55.749793 C 80.619186 55.252729 79.99959 54.998417 79.301388 54.998417 C 78.598562 54.998417 78.002085 55.252729 77.498085 55.749793 C 76.933975 56.24917 76.65192 56.864142 76.65192 57.597023 C 76.65192 58.265169 76.933975 58.847775 77.498085 59.354087 L 83.053644 64.948949 C 83.585387 65.485316 84.165681 65.751187 84.799149 65.751187 Z M 62.248619 2.600917 C 62.248619 1.865725 62.019738 1.280807 61.548105 0.853101 C 61.048729 0.286679 60.433756 0 59.700876 0 C 58.99805 0 58.399261 0.286679 57.897573 0.853101 C 57.400509 1.317798 57.150821 1.902715 57.150821 2.600917 L 57.150821 10.498458 C 57.150821 11.268329 57.400509 11.901797 57.897573 12.398861 C 58.399261 12.898237 58.99805 13.152549 59.700876 13.152549 C 60.433756 13.152549 61.048729 12.898237 61.548105 12.398861 C 62.019738 11.934164 62.248619 11.298384 62.248619 10.498458 Z M 42.199593 20.398127 C 42.698969 19.901063 42.946345 19.267595 42.946345 18.500035 C 42.946345 17.79721 42.698969 17.212292 42.199593 16.752219 L 36.803557 11.400109 C 36.299557 10.863742 35.70308 10.595559 34.997942 10.595559 C 34.265061 10.595559 33.650089 10.863742 33.146089 11.400109 C 32.649025 11.864806 32.399337 12.447412 32.399337 13.152549 C 32.399337 13.880806 32.649025 14.502714 33.146089 14.999779 L 38.500511 20.398127 C 38.997575 20.899815 39.600987 21.151815 40.296877 21.151815 C 41.069061 21.151815 41.695593 20.899815 42.199593 20.398127 Z M 59.700876 19.750787 C 55.199555 19.750787 51.236913 21.179558 47.799079 24.046347 C 50.198858 25.146824 52.51772 26.765172 54.751041 28.89908 C 58.015481 32.269869 60.117022 36.061428 61.048729 40.296877 C 64.283114 40.766198 67.117536 42.229648 69.549682 44.701097 C 71.283627 46.435042 72.534379 48.370124 73.301939 50.501721 C 76.464654 46.964473 78.050636 42.828437 78.050636 38.102859 C 78.050636 33.032805 76.249645 28.71875 72.647664 25.146824 C 69.045682 21.547154 64.731628 19.750787 59.700876 19.750787 Z M 59.046601 67.697829 L 59.650013 67.697829 C 62.280986 67.332545 64.583664 66.167334 66.548802 64.197573 C 68.946269 61.802417 70.146159 58.896325 70.146159 55.504729 C 70.146159 52.131629 68.946269 49.25328 66.548802 46.853501 C 64.14671 44.451409 61.26605 43.251519 57.897573 43.251519 L 57.548472 43.251519 C 57.051408 38.586052 55.09783 34.55174 51.696986 31.148585 C 47.766712 27.148952 43.004143 25.146824 37.400034 25.146824 C 31.765869 25.146824 26.96631 27.148952 22.999044 31.148585 C 20.800402 33.282493 19.21442 35.735447 18.252659 38.500511 L 17.103632 38.500511 C 13.103999 38.500511 9.649981 39.910786 6.748513 42.747519 C 3.918715 45.646675 2.499192 49.098381 2.499192 53.102638 C 2.499192 57.201683 3.918715 60.669573 6.748513 63.499371 C 9.284696 66.03093 12.31332 67.43427 15.850567 67.697829 Z M 38.801061 73.748141 C 38.102859 73.486893 37.430089 73.468397 36.803557 73.69959 C 36.130786 73.898416 35.670713 74.333058 35.397905 74.998893 L 32.49875 81.347443 C 32.131153 82.050268 32.098786 82.716103 32.399337 83.349571 C 32.600474 83.983039 33.044364 84.480103 33.749502 84.847699 C 34.38297 85.115883 35.046492 85.14825 35.744694 84.949424 C 36.380474 84.648874 36.863667 84.165681 37.198896 83.497534 L 40.146602 77.199847 C 40.384731 76.566379 40.403226 75.900544 40.197464 75.197718 C 39.901538 74.531884 39.432217 74.046379 38.801061 73.748141 Z M 15.603191 81.347443 C 15.298017 82.050268 15.267962 82.716103 15.503779 83.349571 C 15.702604 83.983039 16.148806 84.480103 16.851632 84.847699 C 17.517466 85.115883 18.183301 85.14825 18.849136 84.949424 C 19.512659 84.648874 20.018971 84.165681 20.347264 83.497534 L 23.24642 77.199847 C 23.482237 76.566379 23.482237 75.900544 23.24642 75.197718 C 23.047594 74.531884 22.617576 74.046379 21.951741 73.748141 C 21.216549 73.486893 20.54609 73.468397 19.949613 73.69959 C 19.251411 73.898416 18.768219 74.333058 18.500035 74.998893 Z M 8.651229 96.347221 C 8.350678 96.980689 8.334495 97.646524 8.600366 98.349349 C 8.799192 98.982817 9.233834 99.452138 9.899669 99.748065 C 10.565504 100.016248 11.219779 100.053239 11.853247 99.847478 C 12.51677 99.650964 13.016146 99.232505 13.351375 98.599038 L 16.20198 92.449313 C 16.497907 91.751112 16.548769 91.085277 16.349944 90.451809 C 16.051705 89.716616 15.614751 89.214928 15.048329 88.953681 C 14.315448 88.648506 13.631118 88.616139 13.002274 88.847332 C 12.271705 89.115515 11.783889 89.561717 11.548072 90.197497 Z M 29.849282 88.847332 C 29.215814 89.083148 28.748805 89.531662 28.450566 90.197497 L 25.602273 96.347221 C 25.267044 96.948322 25.216181 97.616469 25.447374 98.349349 C 25.713246 98.982817 26.1502 99.452138 26.753612 99.748065 C 27.449502 100.016248 28.115337 100.053239 28.748805 99.847478 C 29.384585 99.681019 29.881649 99.269496 30.246933 98.599038 L 33.044364 92.449313 C 33.381905 91.751112 33.432768 91.085277 33.201575 90.451809 C 32.963447 89.748983 32.517245 89.251919 31.853722 88.953681 C 31.250309 88.648506 30.584474 88.616139 29.849282 88.847332 Z M 55.199555 73.748141 C 54.46205 73.486893 53.817023 73.468397 53.250601 73.69959 C 52.51772 73.898416 52.020656 74.333058 51.750161 74.998893 L 48.797831 81.347443 C 48.499592 82.013277 48.481097 82.683736 48.74928 83.349571 C 48.915739 83.983039 49.352693 84.480103 50.048583 84.847699 C 50.783776 85.115883 51.484289 85.14825 52.150124 84.949424 C 52.815959 84.611883 53.282968 84.133314 53.54884 83.497534 L 56.496546 77.199847 C 56.732362 76.566379 56.732362 75.900544 56.496546 75.197718 C 56.300032 74.531884 55.863078 74.046379 55.199555 73.748141 Z M 44.749648 90.197497 L 41.952217 96.347221 C 41.647042 96.883588 41.598492 97.547111 41.797318 98.349349 C 42.063189 99.015184 42.537134 99.482193 43.202969 99.748065 C 43.831813 100.016248 44.481464 100.053239 45.147299 99.847478 C 45.780767 99.650964 46.287079 99.232505 46.645427 98.599038 L 49.496033 92.449313 C 49.76884 91.714121 49.780399 91.048286 49.549207 90.451809 C 49.352693 89.748983 48.915739 89.251919 48.252216 88.953681 C 47.584069 88.648506 46.913611 88.616139 46.247776 88.847332 C 45.614308 89.115515 45.117244 89.561717 44.749648 90.197497 Z M 44.749648 90.197497 " transform="matrix(1.689608,0,0,1.689608,0,0)"/>
</g>
</svg>
