<?xml version="1.0" encoding="UTF-8"?>
<svg xmlns="http://www.w3.org/2000/svg" xmlns:xlink="http://www.w3.org/1999/xlink" width="170pt" height="170pt" viewBox="0 0 170 170" version="1.1">
<g id="surface1">
<path style=" stroke:none;fill-rule:nonzero;fill:rgb(69.803922%,92.54902%,94.901961%);fill-opacity:1;" d="M 81.78125 147.921875 L 76.953125 158.398438 C 76.347656 159.417969 76.261719 160.59375 76.703125 161.949219 C 77.152344 163.074219 77.945312 163.832031 79.074219 164.230469 C 80.253906 164.734375 81.359375 164.796875 82.367188 164.398438 C 83.4375 164.125 84.308594 163.441406 84.992188 162.371094 L 89.890625 151.8125 C 90.28125 150.398438 90.28125 149.214844 89.890625 148.257812 C 89.605469 147.132812 88.847656 146.292969 87.609375 145.726562 C 86.484375 145.21875 85.351562 145.171875 84.226562 145.558594 C 83.21875 146.074219 82.394531 146.859375 81.78125 147.921875 M 99.683594 119.710938 C 98.285156 119.3125 97.183594 119.289062 96.394531 119.625 C 94.988281 119.960938 94.050781 120.71875 93.601562 121.90625 L 88.535156 132.71875 C 88.03125 133.957031 88.03125 135.085938 88.535156 136.101562 C 88.871094 137.277344 89.636719 138.152344 90.8125 138.714844 C 92.054688 139.171875 93.242188 139.21875 94.367188 138.886719 C 95.488281 138.433594 96.308594 137.644531 96.8125 136.519531 L 101.882812 125.710938 C 102.28125 124.523438 102.28125 123.367188 101.882812 122.238281 C 101.542969 121.171875 100.820312 120.332031 99.683594 119.710938 M 59.640625 145.726562 C 58.515625 145.21875 57.359375 145.171875 56.171875 145.558594 C 55.058594 146.011719 54.261719 146.796875 53.820312 147.921875 L 48.992188 158.398438 C 48.324219 159.417969 48.207031 160.59375 48.660156 161.949219 C 49.058594 162.957031 49.785156 163.726562 50.851562 164.230469 C 52.148438 164.734375 53.304688 164.796875 54.324219 164.398438 C 55.28125 164.175781 56.121094 163.496094 56.855469 162.371094 L 61.667969 151.8125 C 62.238281 150.515625 62.320312 149.332031 61.921875 148.257812 C 61.53125 147.195312 60.765625 146.34375 59.640625 145.726562 M 30.839844 145.726562 C 29.484375 145.21875 28.304688 145.171875 27.285156 145.558594 C 26.101562 146.011719 25.261719 146.796875 24.753906 147.921875 L 19.859375 158.398438 C 19.289062 159.46875 19.261719 160.65625 19.765625 161.949219 C 20.109375 162.957031 20.835938 163.726562 21.96875 164.230469 C 23.199219 164.734375 24.304688 164.796875 25.261719 164.398438 C 26.382812 164.125 27.285156 163.441406 27.960938 162.371094 L 32.699219 151.8125 C 33.308594 150.460938 33.402344 149.277344 32.953125 148.257812 C 32.5 147.078125 31.792969 146.242188 30.839844 145.726562 M 68.171875 119.625 C 66.929688 119.960938 66.125 120.71875 65.722656 121.90625 L 60.742188 132.71875 C 60.007812 134.011719 59.984375 135.132812 60.660156 136.101562 C 60.929688 137.277344 61.667969 138.152344 62.851562 138.714844 C 64.03125 139.171875 65.195312 139.21875 66.324219 138.886719 C 67.382812 138.378906 68.171875 137.59375 68.6875 136.519531 L 73.921875 125.710938 C 74.257812 124.523438 74.257812 123.367188 73.921875 122.238281 C 73.414062 121.117188 72.625 120.269531 71.554688 119.710938 C 70.199219 119.3125 69.078125 119.289062 68.171875 119.625 M 42.578125 119.710938 C 41.230469 119.3125 40.125 119.289062 39.277344 119.625 C 38.046875 119.960938 37.199219 120.71875 36.757812 121.90625 L 31.761719 132.71875 C 31.261719 134.011719 31.207031 135.132812 31.59375 136.101562 C 31.929688 137.277344 32.699219 138.152344 33.878906 138.714844 C 35.113281 139.171875 36.304688 139.21875 37.425781 138.886719 C 38.382812 138.433594 39.222656 137.644531 39.960938 136.519531 L 44.941406 125.710938 C 45.285156 124.523438 45.285156 123.367188 44.941406 122.238281 C 44.4375 121.054688 43.648438 120.214844 42.578125 119.710938 M 98.421875 41.398438 C 93.746094 36.722656 88.421875 33.421875 82.449219 31.511719 C 78.675781 30.386719 74.65625 29.820312 70.367188 29.820312 C 59.335938 29.820312 49.898438 33.675781 42.070312 41.398438 C 37.625 45.898438 34.496094 50.804688 32.699219 56.097656 L 30.585938 55.929688 C 22.746094 55.929688 15.96875 58.71875 10.222656 64.296875 C 4.707031 69.976562 1.941406 76.734375 1.941406 84.5625 C 1.941406 92.671875 4.707031 99.429688 10.222656 104.839844 C 15.289062 109.90625 21.234375 112.722656 28.042969 113.289062 L 113.964844 113.289062 C 119.089844 112.554688 123.628906 110.273438 127.570312 106.449219 C 132.296875 101.828125 134.660156 96.109375 134.660156 89.289062 C 134.660156 88 134.492188 86.570312 134.15625 84.992188 C 133.425781 80.203125 131.226562 76 127.570312 72.398438 C 122.894531 67.667969 117.230469 65.304688 110.582031 65.304688 L 109.90625 65.304688 C 108.949219 56.234375 105.113281 48.269531 98.421875 41.398438 Z M 98.421875 41.398438 "/>
<path style=" stroke:none;fill-rule:nonzero;fill:rgb(98.823529%,80%,49.411765%);fill-opacity:1;" d="M 146.742188 7.605469 L 148.773438 7.605469 C 143.648438 4.558594 138.066406 3.039062 132.046875 3.039062 C 122.976562 3.039062 115.234375 6.28125 108.8125 12.757812 C 103.90625 17.714844 100.890625 23.515625 99.765625 30.15625 C 102.027344 31.5625 104.222656 33.339844 106.367188 35.484375 C 112.839844 42.132812 117.03125 49.5625 118.945312 57.789062 C 125.140625 58.746094 130.691406 61.667969 135.597656 66.574219 L 137.027344 68.003906 C 143.847656 67.101562 149.835938 64.117188 155.023438 59.050781 C 160.878906 53.136719 164.03125 46.097656 164.480469 37.933594 C 163.640625 39.457031 162.539062 40.96875 161.183594 42.488281 C 157.085938 46.378906 152.261719 48.324219 146.742188 48.324219 C 141.113281 48.324219 136.300781 46.378906 132.296875 42.488281 C 128.355469 38.5 126.382812 33.652344 126.382812 27.960938 C 126.382812 22.382812 128.355469 17.566406 132.296875 13.515625 C 136.238281 9.574219 141.0625 7.605469 146.742188 7.605469 Z M 146.742188 7.605469 "/>
<path style="fill:none;stroke-width:1;stroke-linecap:round;stroke-linejoin:round;stroke:rgb(36.862745%,45.882353%,52.54902%);stroke-opacity:1;stroke-miterlimit:4;" d="M 97.348285 22.451117 C 96.851221 23.352769 96.199258 24.247484 95.397019 25.146824 C 92.969497 27.449502 90.11658 28.600842 86.849828 28.600842 C 83.518342 28.600842 80.670048 27.449502 78.300324 25.146824 C 75.96759 22.784035 74.800067 19.917246 74.800067 16.548769 C 74.800067 13.247338 75.96759 10.396733 78.300324 7.996953 C 80.633057 5.666532 83.488287 4.501321 86.849828 4.501321 L 88.052029 4.501321 C 85.018782 2.698018 81.715039 1.796367 78.15236 1.796367 C 72.784067 1.796367 68.201829 3.717578 64.401022 7.550752 C 61.497243 10.482274 59.712435 13.917797 59.046601 17.848072 C 60.385206 18.680365 61.684509 19.732292 62.951444 21.00154 C 66.784618 24.936438 69.265315 29.333722 70.398159 34.202639 C 74.064874 34.769061 77.350122 36.498382 80.253901 39.402162 L 81.100067 40.248327 C 85.13669 39.714272 88.680873 37.945648 91.751112 34.949392 C 95.216689 31.449135 97.082414 27.283044 97.348285 22.451117 Z M 65.048361 38.650786 C 64.48194 33.282493 62.211628 28.568475 58.251298 24.501796 C 55.483922 21.73442 52.330454 19.780842 48.797831 18.65031 C 46.56451 17.984476 44.185538 17.649246 41.647042 17.649246 C 35.11585 17.649246 29.532548 19.931118 24.899447 24.501796 C 22.268475 27.165135 20.416622 30.068915 19.353136 33.201575 L 18.102384 33.102162 C 13.462347 33.102162 9.451155 34.752878 6.050311 38.054309 C 2.785871 41.41585 1.149027 45.415482 1.149027 50.048583 C 1.149027 54.848142 2.785871 58.847775 6.050311 62.049793 C 9.04888 65.048361 12.567632 66.71526 16.59732 67.05049 L 67.450453 67.05049 C 70.4837 66.615848 73.170159 65.265683 75.502893 63.002307 C 78.300324 60.267298 79.699039 56.882637 79.699039 52.846014 C 79.699039 52.083078 79.599626 51.236913 79.400801 50.302895 C 78.96847 47.466161 77.666856 44.98084 75.502893 42.849244 C 72.735517 40.049501 69.383223 38.650786 65.448325 38.650786 Z M 25.199998 70.851297 C 24.402383 70.61548 23.748108 70.601609 23.24642 70.800434 C 22.518163 70.99926 22.016475 71.447774 21.752916 72.148287 L 18.798274 78.5477 C 18.500035 79.315259 18.46998 79.978782 18.698861 80.549828 C 18.897686 81.24803 19.353136 81.765901 20.051338 82.098819 C 20.781906 82.367002 21.487044 82.397057 22.150567 82.200544 C 22.716989 81.93236 23.214053 81.465351 23.648695 80.799516 L 26.596401 74.402416 C 26.802163 73.69959 26.802163 73.012948 26.596401 72.347113 C 26.300475 71.646599 25.833466 71.149535 25.199998 70.851297 Z M 42.349868 70.851297 C 41.54763 70.61548 40.884107 70.601609 40.34774 70.800434 C 39.612547 70.99926 39.133978 71.447774 38.898162 72.148287 L 35.950456 78.5477 C 35.515814 79.315259 35.501942 79.978782 35.901905 80.549828 C 36.061428 81.24803 36.498382 81.765901 37.198896 82.098819 C 37.897098 82.367002 38.586052 82.397057 39.251887 82.200544 C 39.880731 81.899993 40.34774 81.435296 40.652914 80.799516 L 43.750895 74.402416 C 43.949721 73.69959 43.949721 73.012948 43.750895 72.347113 C 43.450345 71.68359 42.983336 71.17959 42.349868 70.851297 Z M 19.353136 89.848396 C 19.713796 89.050781 19.769283 88.350268 19.503411 87.746855 C 19.235228 87.048653 18.816769 86.553901 18.252659 86.248727 C 17.450421 85.948176 16.752219 85.918121 16.148806 86.149314 C 15.448292 86.415185 14.951228 86.882194 14.650678 87.548029 L 11.753834 93.748616 C 11.416293 94.382084 11.400109 95.084909 11.698348 95.847845 C 11.901797 96.446634 12.329504 96.899772 13.002274 97.200322 C 13.730531 97.498561 14.384806 97.535551 14.951228 97.299735 C 15.614751 97.135588 16.148806 96.733313 16.548769 96.099845 Z M 28.797355 95.847845 C 29.033172 96.446634 29.465502 96.899772 30.096658 97.200322 C 30.864218 97.498561 31.548548 97.535551 32.151961 97.299735 C 32.718383 97.167955 33.215447 96.763368 33.650089 96.099845 L 36.498382 89.848396 C 36.835923 89.083148 36.884474 88.380323 36.648657 87.746855 C 36.417465 87.118011 35.964327 86.614011 35.298492 86.248727 C 34.632658 85.948176 33.946015 85.918121 33.245502 86.149314 C 32.586603 86.415185 32.11497 86.882194 31.853722 87.548029 L 28.996181 93.748616 C 28.600842 94.352029 28.531484 95.047919 28.797355 95.847845 Z M 58.99805 70.851297 C 58.17038 70.61548 57.518417 70.601609 57.051408 70.800434 C 56.219115 70.99926 55.664252 71.447774 55.396069 72.148287 L 52.399812 78.5477 C 52.101574 79.282892 52.101574 79.951039 52.399812 80.549828 C 52.598638 81.24803 53.051775 81.765901 53.747665 82.098819 C 54.482858 82.367002 55.185683 82.397057 55.851518 82.200544 C 56.515041 81.93236 57.000546 81.465351 57.298784 80.799516 L 60.299665 74.402416 C 60.535481 73.69959 60.535481 73.012948 60.299665 72.347113 C 60.098527 71.715957 59.670821 71.216581 58.99805 70.851297 Z M 53.202051 87.746855 C 53.03328 87.08102 52.584766 86.583956 51.851886 86.248727 C 51.186051 85.948176 50.515592 85.918121 49.849757 86.149314 C 49.25328 86.454488 48.765464 86.919185 48.400179 87.548029 L 45.54495 93.748616 C 45.186602 94.352029 45.135739 95.047919 45.396987 95.847845 C 45.662859 96.515992 46.129868 96.964506 46.800326 97.200322 C 47.498528 97.498561 48.152803 97.535551 48.74928 97.299735 C 49.382748 97.135588 49.898308 96.733313 50.302895 96.099845 L 53.202051 89.848396 C 53.430931 89.013791 53.430931 88.313277 53.202051 87.746855 Z M 53.202051 87.746855 " transform="matrix(1.689608,0,0,1.689608,0,0)"/>
</g>
</svg>
