<?xml version="1.0" encoding="UTF-8"?>
<svg xmlns="http://www.w3.org/2000/svg" xmlns:xlink="http://www.w3.org/1999/xlink" width="170pt" height="170pt" viewBox="0 0 170 170" version="1.1">
<g id="surface1">
<path style=" stroke:none;fill-rule:nonzero;fill:rgb(69.803922%,92.54902%,94.901961%);fill-opacity:1;" d="M 157.808594 66.488281 C 157.808594 59.28125 155.242188 53.050781 150.117188 47.820312 C 144.9375 42.691406 138.714844 40.125 131.449219 40.125 L 130.773438 40.125 C 129.765625 30.101562 125.558594 21.402344 118.1875 14.027344 C 109.621094 5.515625 99.347656 1.261719 87.347656 1.261719 C 75.355469 1.261719 65.050781 5.515625 56.433594 14.027344 C 51.644531 18.859375 48.269531 24.1875 46.296875 29.988281 L 43.929688 29.902344 C 35.25 29.902344 27.824219 32.953125 21.625 39.023438 C 15.554688 45.222656 12.503906 52.664062 12.503906 61.332031 C 12.503906 70.0625 15.554688 77.46875 21.625 83.554688 C 27.203125 89.125 33.707031 92.191406 41.136719 92.757812 L 133.988281 92.757812 L 135.25 92.589844 C 140.894531 91.855469 145.84375 89.375 150.117188 85.152344 C 155.242188 79.96875 157.808594 73.75 157.808594 66.488281 M 100.285156 154.089844 C 99.597656 155.496094 99.546875 156.902344 100.105469 158.3125 C 100.621094 159.722656 101.574219 160.761719 102.980469 161.445312 C 104.339844 162.117188 105.746094 162.199219 107.207031 161.695312 C 108.613281 161.183594 109.652344 160.257812 110.328125 158.902344 L 116.492188 145.726562 C 117.175781 144.265625 117.230469 142.824219 116.660156 141.417969 C 116.160156 140.011719 115.234375 138.96875 113.875 138.296875 C 112.53125 137.613281 111.09375 137.542969 109.570312 138.035156 C 108.226562 138.550781 107.171875 139.503906 106.449219 140.914062 L 100.285156 154.089844 M 131.53125 113.039062 C 132.152344 111.566406 132.214844 110.15625 131.699219 108.8125 C 131.140625 107.289062 130.152344 106.25 128.746094 105.683594 C 127.335938 105.011719 125.929688 104.925781 124.523438 105.429688 C 123.0625 105.933594 122.011719 106.925781 121.402344 108.382812 L 115.148438 121.992188 C 114.476562 123.398438 114.382812 124.835938 114.898438 126.296875 C 115.515625 127.707031 116.492188 128.746094 117.851562 129.429688 C 119.257812 130.039062 120.695312 130.105469 122.15625 129.597656 C 123.566406 129.03125 124.605469 128.042969 125.277344 126.632812 L 131.53125 113.039062 M 30.585938 138.035156 C 29.117188 138.550781 28.074219 139.503906 27.457031 140.914062 L 21.285156 154.089844 C 20.617188 155.441406 20.535156 156.855469 21.035156 158.3125 C 21.539062 159.722656 22.527344 160.761719 23.988281 161.445312 C 25.289062 162.117188 26.699219 162.199219 28.210938 161.695312 C 29.621094 161.183594 30.660156 160.257812 31.34375 158.902344 L 37.425781 145.726562 C 38.101562 144.316406 38.183594 142.890625 37.679688 141.417969 C 37.171875 140.011719 36.242188 138.96875 34.882812 138.296875 C 33.484375 137.613281 32.046875 137.542969 30.585938 138.035156 M 49.761719 105.683594 C 48.292969 105.011719 46.882812 104.925781 45.527344 105.429688 C 44.066406 105.933594 43.027344 106.925781 42.40625 108.382812 L 36.15625 121.992188 C 35.484375 123.398438 35.398438 124.835938 35.902344 126.296875 C 36.40625 127.652344 37.363281 128.691406 38.78125 129.429688 C 40.242188 130.039062 41.703125 130.105469 43.175781 129.597656 C 44.574219 129.03125 45.625 128.042969 46.296875 126.632812 L 52.546875 113.039062 C 53.113281 111.679688 53.136719 110.273438 52.628906 108.8125 C 52.125 107.289062 51.167969 106.25 49.761719 105.683594 Z M 49.761719 105.683594 "/>
<path style=" stroke:none;fill-rule:nonzero;fill:rgb(98.823529%,80%,49.411765%);fill-opacity:1;" d="M 67.082031 164.144531 C 66.910156 164.429688 66.828125 164.765625 66.828125 165.15625 C 66.765625 165.71875 66.910156 166.3125 67.246094 166.929688 C 67.699219 167.378906 68.265625 167.695312 68.941406 167.863281 C 69.492188 167.917969 70.125 167.726562 70.800781 167.265625 L 71.386719 166.761719 L 71.46875 166.59375 L 105.429688 124.859375 L 84.226562 122.410156 L 95.972656 103.652344 L 75.105469 101.289062 L 58.042969 134.914062 L 80.003906 137.445312 Z M 67.082031 164.144531 "/>
<path style="fill:none;stroke-width:1;stroke-linecap:round;stroke-linejoin:round;stroke:rgb(36.862745%,45.882353%,52.54902%);stroke-opacity:1;stroke-miterlimit:4;" d="M 77.398672 23.748108 C 76.802195 17.815705 74.312251 12.667045 69.947334 8.302128 C 64.879591 3.26444 58.799224 0.746752 51.696986 0.746752 C 44.599372 0.746752 38.500511 3.26444 33.400401 8.302128 C 30.565979 11.161981 28.568475 14.315448 27.400952 17.748659 L 25.999924 17.697797 C 20.862824 17.697797 16.467852 19.503411 12.798825 23.096145 C 9.206091 26.765172 7.400476 31.169392 7.400476 36.299557 C 7.400476 41.466712 9.206091 45.850125 12.798825 49.452106 C 16.100256 52.748913 19.949613 54.563775 24.346897 54.899005 L 79.301388 54.899005 L 80.04814 54.799592 C 83.388874 54.36495 86.318084 52.896876 88.847332 50.397684 C 91.880579 47.329757 93.399515 43.649171 93.399515 39.351299 C 93.399515 35.085795 91.880579 31.398273 88.847332 28.302603 C 85.781718 25.267044 82.098819 23.748108 77.798636 23.748108 Z M 26.945502 62.398894 C 26.080842 62.697132 25.465869 63.284362 25.098273 64.14671 L 21.399191 72.19915 C 21.00154 73.033755 20.950677 73.884544 21.248916 74.749205 C 21.547154 75.551443 22.113576 76.166416 22.952805 76.60337 C 23.817466 76.96403 24.682126 77.003333 25.553723 76.702783 C 26.381392 76.367553 27.000989 75.782636 27.400952 74.94803 L 31.100034 66.902526 C 31.435263 66.097976 31.449135 65.265683 31.148585 64.401022 C 30.850346 63.499371 30.283924 62.884398 29.451631 62.549169 C 28.582346 62.151518 27.747741 62.100655 26.945502 62.398894 Z M 20.645503 81.851443 C 19.817833 81.446855 18.967044 81.405241 18.102384 81.696544 C 17.233099 82.001718 16.615815 82.565828 16.250531 83.400433 L 12.597687 91.198561 C 12.202348 91.998488 12.153797 92.833093 12.447412 93.697754 C 12.747962 94.532359 13.33288 95.147331 14.19754 95.551919 C 14.967412 95.94957 15.802017 95.99812 16.696733 95.699882 C 17.531338 95.397019 18.14631 94.849093 18.550898 94.046854 L 22.150567 86.248727 C 22.548218 85.414121 22.599081 84.567956 22.300842 83.698672 C 22.000292 82.866378 21.447741 82.249094 20.645503 81.851443 Z M 56.80172 61.346967 L 44.451409 59.948252 L 34.352915 79.849314 L 47.348253 81.347443 L 39.702712 97.14946 C 39.600987 97.31823 39.552437 97.517056 39.552437 97.745937 C 39.515446 98.081166 39.600987 98.432579 39.799813 98.795551 C 40.067997 99.063735 40.403226 99.251001 40.803189 99.350414 C 41.129171 99.382781 41.503703 99.269496 41.903666 98.996689 L 42.250455 98.69845 L 42.299006 98.599038 L 62.398894 73.898416 L 49.849757 72.448838 Z M 77.946599 64.401022 C 77.615993 63.499371 77.031076 62.884398 76.196471 62.549169 C 75.364177 62.151518 74.531884 62.100655 73.69959 62.398894 C 72.83493 62.697132 72.213021 63.284362 71.852361 64.14671 L 68.150967 72.19915 C 67.753315 73.033755 67.697829 73.884544 68.003003 74.749205 C 68.363664 75.58381 68.946269 76.196471 69.75082 76.60337 C 70.583113 76.96403 71.433902 77.003333 72.298563 76.702783 C 73.130856 76.367553 73.748141 75.782636 74.145792 74.94803 L 77.847186 66.902526 C 78.214782 66.03093 78.251773 65.196325 77.946599 64.401022 Z M 59.354087 91.198561 C 58.947188 92.030855 58.917133 92.863148 59.247738 93.697754 C 59.552912 94.532359 60.117022 95.147331 60.949316 95.551919 C 61.753866 95.94957 62.58616 95.99812 63.45082 95.699882 C 64.283114 95.397019 64.898086 94.849093 65.29805 94.046854 L 68.946269 86.248727 C 69.350857 85.384066 69.383223 84.530965 69.045682 83.698672 C 68.749756 82.866378 68.201829 82.249094 67.397279 81.851443 C 66.601976 81.446855 65.751187 81.405241 64.849536 81.696544 C 64.051921 82.001718 63.430013 82.565828 63.002307 83.400433 Z M 59.354087 91.198561 " transform="matrix(1.689608,0,0,1.689608,0,0)"/>
</g>
</svg>
