<?xml version="1.0" encoding="UTF-8"?>
<svg xmlns="http://www.w3.org/2000/svg" xmlns:xlink="http://www.w3.org/1999/xlink" width="170pt" height="170pt" viewBox="0 0 170 170" version="1.1">
<g id="surface1">
<path style=" stroke:none;fill-rule:nonzero;fill:rgb(69.803922%,92.54902%,94.901961%);fill-opacity:1;" d="M 142.941406 77.386719 C 147.566406 72.765625 149.863281 67.164062 149.863281 60.578125 C 149.863281 54.039062 147.566406 48.46875 142.941406 43.847656 C 138.433594 39.222656 132.855469 36.921875 126.214844 36.921875 L 125.625 36.921875 C 124.722656 27.90625 120.949219 20.078125 114.308594 13.429688 C 106.585938 5.78125 97.351562 1.941406 86.589844 1.941406 C 75.832031 1.941406 66.574219 5.78125 58.800781 13.429688 C 54.574219 17.714844 51.507812 22.496094 49.59375 27.789062 L 47.566406 27.707031 C 39.738281 27.707031 33.035156 30.441406 27.457031 35.902344 C 21.941406 41.535156 19.175781 48.238281 19.175781 56.003906 C 19.175781 63.78125 21.941406 70.429688 27.457031 75.945312 C 32.417969 80.90625 38.265625 83.628906 45.023438 84.144531 L 128.492188 84.144531 L 129.597656 84.054688 C 134.714844 83.386719 139.171875 81.160156 142.941406 77.386719 M 89.554688 129.511719 C 88.648438 128.609375 87.492188 128.15625 86.085938 128.15625 C 84.625 128.15625 83.40625 128.609375 82.449219 129.511719 C 81.496094 130.574219 81.023438 131.792969 81.023438 133.136719 L 81.023438 137.78125 L 76.117188 134.832031 C 74.988281 134.210938 73.75 134.011719 72.398438 134.242188 C 71.050781 134.640625 70.007812 135.429688 69.277344 136.605469 C 68.601562 137.730469 68.402344 139.003906 68.6875 140.410156 C 69.078125 141.699219 69.84375 142.742188 70.964844 143.53125 L 76.199219 146.578125 L 70.964844 149.695312 C 69.84375 150.488281 69.078125 151.523438 68.6875 152.828125 C 68.453125 154.175781 68.652344 155.414062 69.277344 156.550781 C 70.0625 157.839844 71.105469 158.597656 72.398438 158.828125 C 73.695312 159.21875 74.9375 159.050781 76.117188 158.3125 L 81.023438 155.441406 L 81.023438 162.035156 C 81.023438 163.441406 81.496094 164.617188 82.449219 165.585938 C 83.457031 166.59375 84.679688 167.097656 86.085938 167.097656 C 87.492188 167.097656 88.648438 166.59375 89.554688 165.585938 C 90.5625 164.679688 91.078125 163.496094 91.078125 162.035156 L 91.078125 155.441406 L 95.890625 158.3125 C 97.117188 159.101562 98.390625 159.269531 99.683594 158.828125 C 101.089844 158.546875 102.144531 157.789062 102.8125 156.550781 C 103.488281 155.359375 103.652344 154.121094 103.316406 152.828125 C 102.980469 151.523438 102.226562 150.488281 101.039062 149.695312 L 95.804688 146.578125 L 101.039062 143.53125 C 102.226562 142.742188 102.980469 141.699219 103.316406 140.410156 C 103.652344 139.054688 103.488281 137.78125 102.8125 136.605469 C 102.191406 135.484375 101.152344 134.691406 99.683594 134.242188 C 98.335938 133.957031 97.066406 134.15625 95.890625 134.832031 L 91.078125 137.78125 L 91.078125 133.136719 C 91.078125 131.730469 90.5625 130.523438 89.554688 129.511719 M 131.035156 102.980469 C 129.617188 102.648438 128.355469 102.847656 127.21875 103.570312 L 122.410156 106.449219 L 122.410156 101.882812 C 122.410156 100.46875 121.90625 99.261719 120.886719 98.253906 C 119.929688 97.300781 118.753906 96.8125 117.347656 96.8125 C 116.054688 96.8125 114.867188 97.300781 113.792969 98.253906 C 112.839844 99.210938 112.355469 100.421875 112.355469 101.882812 L 112.355469 106.449219 L 107.460938 103.570312 C 106.269531 102.847656 105.039062 102.648438 103.742188 102.980469 C 102.445312 103.316406 101.40625 104.074219 100.621094 105.265625 C 99.882812 106.5 99.683594 107.773438 100.019531 109.066406 C 100.355469 110.355469 101.121094 111.398438 102.308594 112.1875 L 107.542969 115.316406 L 102.308594 118.4375 C 101.121094 119.121094 100.355469 120.128906 100.019531 121.472656 C 99.683594 122.777344 99.882812 124.015625 100.621094 125.207031 C 101.351562 126.433594 102.394531 127.21875 103.742188 127.570312 C 105.039062 127.90625 106.269531 127.738281 107.460938 127.054688 L 112.355469 124.101562 L 112.355469 130.773438 C 112.355469 132.179688 112.839844 133.335938 113.792969 134.242188 C 114.8125 135.25 115.992188 135.765625 117.347656 135.765625 C 118.808594 135.765625 119.992188 135.25 120.886719 134.242188 C 121.90625 133.335938 122.410156 132.179688 122.410156 130.773438 L 122.410156 124.101562 L 127.21875 127.054688 C 128.410156 127.738281 129.679688 127.90625 131.035156 127.570312 C 132.382812 127.21875 133.425781 126.433594 134.15625 125.207031 C 134.832031 124.070312 134.996094 122.832031 134.660156 121.472656 C 134.324219 120.128906 133.535156 119.121094 132.296875 118.4375 L 127.136719 115.316406 L 132.296875 112.1875 C 133.535156 111.460938 134.324219 110.410156 134.660156 109.066406 C 134.996094 107.710938 134.832031 106.449219 134.15625 105.265625 C 133.371094 104.074219 132.316406 103.316406 131.035156 102.980469 M 67.164062 102.308594 C 65.808594 102.027344 64.546875 102.246094 63.359375 102.980469 L 58.546875 105.851562 L 58.546875 101.207031 C 58.546875 99.859375 58.042969 98.671875 57.023438 97.652344 C 56.121094 96.699219 54.972656 96.226562 53.566406 96.226562 C 52.09375 96.226562 50.886719 96.699219 49.929688 97.652344 C 48.964844 98.726562 48.492188 99.914062 48.492188 101.207031 L 48.492188 105.851562 L 43.59375 102.980469 C 42.578125 102.246094 41.335938 102.027344 39.875 102.308594 C 38.519531 102.695312 37.480469 103.488281 36.757812 104.671875 C 36.074219 105.800781 35.875 107.070312 36.15625 108.46875 C 36.554688 109.820312 37.34375 110.863281 38.519531 111.597656 L 43.679688 114.730469 L 38.519531 117.765625 C 37.34375 118.5 36.554688 119.542969 36.15625 120.886719 C 35.875 122.292969 36.074219 123.535156 36.757812 124.605469 C 37.480469 125.847656 38.519531 126.632812 39.875 126.972656 C 41.230469 127.308594 42.460938 127.136719 43.59375 126.46875 L 48.492188 123.511719 L 48.492188 130.1875 C 48.492188 131.53125 48.964844 132.6875 49.929688 133.640625 C 50.941406 134.660156 52.148438 135.167969 53.566406 135.167969 C 54.972656 135.167969 56.121094 134.660156 57.023438 133.640625 C 58.042969 132.75 58.546875 131.59375 58.546875 130.1875 L 58.546875 123.511719 L 63.359375 126.46875 C 64.664062 127.136719 65.921875 127.308594 67.164062 126.972656 C 68.570312 126.632812 69.609375 125.847656 70.285156 124.605469 C 71.070312 123.484375 71.25 122.238281 70.800781 120.886719 C 70.449219 119.59375 69.695312 118.554688 68.507812 117.765625 L 63.273438 114.730469 L 68.507812 111.597656 C 69.695312 110.808594 70.449219 109.769531 70.800781 108.46875 C 71.25 107.125 71.070312 105.851562 70.285156 104.671875 C 69.664062 103.542969 68.625 102.75 67.164062 102.308594 Z M 67.164062 102.308594 "/>
<path style="fill:none;stroke-width:1;stroke-linecap:round;stroke-linejoin:round;stroke:rgb(36.862745%,45.882353%,52.54902%);stroke-opacity:1;stroke-miterlimit:4;" d="M 74.349241 21.852328 C 73.817498 16.516402 71.584177 11.883302 67.653903 7.948403 C 63.083224 3.421651 57.61783 1.149027 51.248473 1.149027 C 44.881427 1.149027 39.402162 3.421651 34.801428 7.948403 C 32.299924 10.482274 30.485062 13.312072 29.352218 16.447044 L 28.152328 16.398494 C 23.519227 16.398494 19.551962 18.016843 16.250531 21.248916 C 12.986091 24.582714 11.346935 28.549979 11.346935 33.146089 C 11.346935 37.749134 12.986091 41.684033 16.250531 44.948473 C 19.186677 47.88462 22.647631 49.496033 26.647264 49.801207 L 76.048507 49.801207 L 76.702783 49.748032 C 79.731406 49.352693 82.367002 48.034895 84.600323 45.801574 C 87.337644 43.064253 88.697057 39.751263 88.697057 35.853355 C 88.697057 31.980878 87.337644 28.686383 84.600323 25.951374 C 81.93236 23.214053 78.630929 21.852328 74.700654 21.852328 Z M 29.551043 57.795848 C 28.979998 58.431628 28.700254 59.134454 28.700254 59.899701 L 28.700254 62.648582 L 25.801099 60.949316 C 25.199998 60.514674 24.464805 60.385206 23.600145 60.551665 C 22.797906 60.780545 22.182934 61.249866 21.752916 61.95038 C 21.35064 62.618527 21.232732 63.369903 21.399191 64.197573 C 21.635007 64.997499 22.102016 65.614783 22.797906 66.049426 L 25.849649 67.903591 L 22.797906 69.699957 C 22.102016 70.1346 21.635007 70.751884 21.399191 71.547187 C 21.232732 72.37948 21.35064 73.114673 21.752916 73.748141 C 22.182934 74.483333 22.797906 74.94803 23.600145 75.146856 C 24.402383 75.347994 25.13064 75.246269 25.801099 74.850929 L 28.700254 73.100801 L 28.700254 77.051883 C 28.700254 77.847186 28.979998 78.531516 29.551043 79.095626 C 30.149832 79.699039 30.864218 79.99959 31.703447 79.99959 C 32.53574 79.99959 33.215447 79.699039 33.749502 79.095626 C 34.352915 78.568507 34.651153 77.884177 34.651153 77.051883 L 34.651153 73.100801 L 37.499446 74.850929 C 38.269318 75.246269 39.01607 75.347994 39.751263 75.146856 C 40.583556 74.94803 41.198529 74.483333 41.598492 73.748141 C 42.063189 73.082306 42.169538 72.347113 41.903666 71.547187 C 41.695593 70.781939 41.247079 70.166967 40.546565 69.699957 L 37.448584 67.903591 L 40.546565 66.049426 C 41.247079 65.582416 41.695593 64.967444 41.903666 64.197573 C 42.169538 63.40227 42.063189 62.648582 41.598492 61.95038 C 41.230896 61.282233 40.615923 60.812912 39.751263 60.551665 C 38.949024 60.385206 38.202272 60.514674 37.499446 60.949316 L 34.651153 62.648582 L 34.651153 59.899701 C 34.651153 59.102087 34.352915 58.399261 33.749502 57.795848 C 33.215447 57.231738 32.53574 56.951995 31.703447 56.951995 C 30.831851 56.951995 30.117465 57.231738 29.551043 57.795848 Z M 71.547187 58.151885 C 70.980765 57.587775 70.284875 57.298784 69.452581 57.298784 C 68.687334 57.298784 67.982196 57.587775 67.348728 58.151885 C 66.784618 58.718307 66.497939 59.435004 66.497939 60.299665 L 66.497939 63.002307 L 63.601096 61.298417 C 62.895958 60.868399 62.167701 60.75049 61.400142 60.949316 C 60.632582 61.148142 60.01761 61.596655 59.552912 62.301793 C 59.115958 63.032362 58.99805 63.78605 59.196876 64.551297 C 59.395701 65.314233 59.848839 65.931517 60.551665 66.398526 L 63.649646 68.25038 L 60.551665 70.097609 C 59.848839 70.502196 59.395701 71.098673 59.196876 71.893976 C 58.99805 72.666159 59.115958 73.39904 59.552912 74.104177 C 59.985243 74.830122 60.602527 75.294819 61.400142 75.502893 C 62.167701 75.701718 62.895958 75.599994 63.601096 75.197718 L 66.497939 73.449902 L 66.497939 77.398672 C 66.497939 78.230966 66.784618 78.915296 67.348728 79.449351 C 67.952141 80.04814 68.650343 80.353314 69.452581 80.353314 C 70.317242 80.353314 71.017755 80.04814 71.547187 79.449351 C 72.148287 78.915296 72.448838 78.230966 72.448838 77.398672 L 72.448838 73.449902 L 75.294819 75.197718 C 75.999957 75.599994 76.751333 75.701718 77.553571 75.502893 C 78.348874 75.294819 78.96847 74.830122 79.400801 74.104177 C 79.800764 73.431407 79.897865 72.698526 79.699039 71.893976 C 79.500213 71.098673 79.033204 70.502196 78.300324 70.097609 L 75.246269 68.25038 L 78.300324 66.398526 C 79.033204 65.968508 79.500213 65.3466 79.699039 64.551297 C 79.897865 63.749059 79.800764 63.002307 79.400801 62.301793 C 78.936103 61.596655 78.311883 61.148142 77.553571 60.949316 C 76.714342 60.75049 75.96759 60.868399 75.294819 61.298417 L 72.448838 63.002307 L 72.448838 60.299665 C 72.448838 59.462747 72.148287 58.748362 71.547187 58.151885 Z M 45.050198 79.800764 C 44.382051 79.433168 43.649171 79.315259 42.849244 79.449351 C 42.051629 79.68748 41.434345 80.154489 41.002015 80.850378 C 40.602052 81.516213 40.484143 82.269901 40.652914 83.102195 C 40.884107 83.865131 41.334932 84.480103 42.000767 84.949424 L 45.098748 86.752727 L 42.000767 88.597644 C 41.334932 89.066965 40.884107 89.679625 40.652914 90.451809 C 40.514198 91.249423 40.632107 91.982304 41.002015 92.655075 C 41.466712 93.41801 42.081685 93.866524 42.849244 94.000616 C 43.616804 94.23412 44.351996 94.134708 45.050198 93.697754 L 47.953978 91.998488 L 47.953978 95.901019 C 47.953978 96.733313 48.233721 97.429203 48.797831 98.000249 C 49.394308 98.599038 50.117941 98.897276 50.950234 98.897276 C 51.782528 98.897276 52.466858 98.599038 53.003225 98.000249 C 53.59739 97.466194 53.902564 96.763368 53.902564 95.901019 L 53.902564 91.998488 L 56.75317 93.697754 C 57.479114 94.164763 58.232802 94.264176 58.99805 94.000616 C 59.830344 93.834157 60.454564 93.387955 60.849903 92.655075 C 61.249866 91.949937 61.346967 91.217057 61.148142 90.451809 C 60.949316 89.679625 60.503114 89.066965 59.797977 88.597644 L 56.702307 86.752727 L 59.797977 84.949424 C 60.503114 84.480103 60.949316 83.865131 61.148142 83.102195 C 61.346967 82.299956 61.249866 81.546268 60.849903 80.850378 C 60.482307 80.186856 59.867334 79.717535 58.99805 79.449351 C 58.200435 79.282892 57.449059 79.400801 56.75317 79.800764 L 53.902564 81.546268 L 53.902564 78.797388 C 53.902564 77.965094 53.59739 77.248397 53.003225 76.65192 C 52.466858 76.117865 51.782528 75.849682 50.950234 75.849682 C 50.085574 75.849682 49.364253 76.117865 48.797831 76.65192 C 48.233721 77.280764 47.953978 78.002085 47.953978 78.797388 L 47.953978 81.546268 Z M 45.050198 79.800764 " transform="matrix(1.689608,0,0,1.689608,0,0)"/>
</g>
</svg>
