<?xml version="1.0" encoding="UTF-8"?>
<svg xmlns="http://www.w3.org/2000/svg" xmlns:xlink="http://www.w3.org/1999/xlink" width="170pt" height="170pt" viewBox="0 0 270 270" version="1.1">
<g id="surface1">
<path style=" stroke:none;fill-rule:nonzero;fill:rgb(69.803922%,92.54902%,94.901961%);fill-opacity:1;" d="M 228.421875 123.660156 C 235.800781 116.28125 239.488281 107.324219 239.488281 96.796875 C 239.488281 86.355469 235.800781 77.445312 228.421875 70.066406 C 221.21875 62.683594 212.308594 58.996094 201.691406 58.996094 L 200.746094 58.996094 C 199.304688 44.59375 193.273438 32.085938 182.65625 21.464844 C 170.324219 9.226562 155.566406 3.105469 138.375 3.105469 C 121.183594 3.105469 106.378906 9.226562 93.960938 21.464844 C 87.210938 28.304688 82.304688 35.953125 79.246094 44.414062 L 76.003906 44.28125 C 63.496094 44.28125 52.785156 48.644531 43.875 57.375 C 35.054688 66.375 30.644531 77.085938 30.644531 89.503906 C 30.644531 101.925781 35.054688 112.546875 43.875 121.363281 C 51.796875 129.285156 61.15625 133.648438 71.953125 134.460938 L 205.335938 134.460938 L 207.089844 134.324219 C 215.28125 133.246094 222.390625 129.691406 228.421875 123.660156 M 143.101562 206.953125 C 141.660156 205.515625 139.816406 204.796875 137.566406 204.796875 C 135.226562 204.796875 133.289062 205.515625 131.761719 206.953125 C 130.230469 208.664062 129.464844 210.601562 129.464844 212.761719 L 129.464844 220.183594 L 121.636719 215.460938 C 119.835938 214.46875 117.855469 214.15625 115.695312 214.515625 C 113.535156 215.144531 111.871094 216.40625 110.699219 218.296875 C 109.621094 220.09375 109.304688 222.121094 109.753906 224.371094 C 110.386719 226.441406 111.601562 228.105469 113.398438 229.363281 L 121.769531 234.226562 L 113.398438 239.21875 C 111.601562 240.480469 110.386719 242.144531 109.753906 244.214844 C 109.394531 246.375 109.710938 248.355469 110.699219 250.15625 C 111.960938 252.226562 113.625 253.441406 115.695312 253.800781 C 117.765625 254.429688 119.746094 254.160156 121.636719 252.988281 L 129.464844 248.398438 L 129.464844 258.929688 C 129.464844 261.179688 130.230469 263.070312 131.761719 264.601562 C 133.378906 266.21875 135.316406 267.03125 137.566406 267.03125 C 139.816406 267.03125 141.660156 266.21875 143.101562 264.601562 C 144.71875 263.160156 145.53125 261.269531 145.53125 258.929688 L 145.53125 248.398438 L 153.226562 252.988281 C 155.203125 254.25 157.230469 254.519531 159.300781 253.800781 C 161.550781 253.351562 163.214844 252.136719 164.296875 250.15625 C 165.375 248.265625 165.644531 246.285156 165.105469 244.214844 C 164.566406 242.144531 163.351562 240.480469 161.460938 239.21875 L 153.089844 234.226562 L 161.460938 229.363281 C 163.351562 228.105469 164.566406 226.441406 165.105469 224.371094 C 165.644531 222.210938 165.375 220.183594 164.296875 218.296875 C 163.304688 216.496094 161.640625 215.234375 159.300781 214.515625 C 157.140625 214.066406 155.113281 214.378906 153.226562 215.460938 L 145.53125 220.183594 L 145.53125 212.761719 C 145.53125 210.511719 144.71875 208.574219 143.101562 206.953125 M 209.386719 164.566406 C 207.136719 164.023438 205.109375 164.339844 203.308594 165.511719 L 195.613281 170.101562 L 195.613281 162.808594 C 195.613281 160.558594 194.804688 158.625 193.183594 157.003906 C 191.65625 155.476562 189.765625 154.710938 187.515625 154.710938 C 185.445312 154.710938 183.554688 155.476562 181.84375 157.003906 C 180.316406 158.535156 179.550781 160.46875 179.550781 162.808594 L 179.550781 170.101562 L 171.71875 165.511719 C 169.828125 164.339844 167.851562 164.023438 165.78125 164.566406 C 163.710938 165.105469 162.046875 166.320312 160.785156 168.210938 C 159.613281 170.191406 159.300781 172.214844 159.839844 174.285156 C 160.378906 176.355469 161.59375 178.019531 163.484375 179.28125 L 171.855469 184.273438 L 163.484375 189.269531 C 161.59375 190.351562 160.378906 191.96875 159.839844 194.128906 C 159.300781 196.199219 159.613281 198.179688 160.785156 200.070312 C 161.953125 202.050781 163.621094 203.308594 165.78125 203.851562 C 167.851562 204.390625 169.828125 204.121094 171.71875 203.039062 L 179.550781 198.316406 L 179.550781 208.980469 C 179.550781 211.230469 180.316406 213.074219 181.84375 214.515625 C 183.464844 216.136719 185.355469 216.945312 187.515625 216.945312 C 189.855469 216.945312 191.746094 216.136719 193.183594 214.515625 C 194.804688 213.074219 195.613281 211.230469 195.613281 208.980469 L 195.613281 198.316406 L 203.308594 203.039062 C 205.199219 204.121094 207.226562 204.390625 209.386719 203.851562 C 211.546875 203.308594 213.210938 202.050781 214.378906 200.070312 C 215.460938 198.269531 215.730469 196.289062 215.191406 194.128906 C 214.648438 191.96875 213.390625 190.351562 211.410156 189.269531 L 203.175781 184.273438 L 211.410156 179.28125 C 213.390625 178.109375 214.648438 176.445312 215.191406 174.285156 C 215.730469 172.125 215.460938 170.101562 214.378906 168.210938 C 213.121094 166.320312 211.453125 165.105469 209.386719 164.566406 M 107.324219 163.484375 C 105.164062 163.035156 103.140625 163.394531 101.25 164.566406 L 93.554688 169.15625 L 93.554688 161.730469 C 93.554688 159.570312 92.746094 157.679688 91.125 156.058594 C 89.683594 154.53125 87.839844 153.765625 85.589844 153.765625 C 83.25 153.765625 81.316406 154.53125 79.785156 156.058594 C 78.253906 157.769531 77.488281 159.660156 77.488281 161.730469 L 77.488281 169.15625 L 69.660156 164.566406 C 68.039062 163.394531 66.058594 163.035156 63.71875 163.484375 C 61.558594 164.113281 59.894531 165.375 58.726562 167.265625 C 57.644531 169.066406 57.328125 171.089844 57.78125 173.339844 C 58.410156 175.5 59.671875 177.164062 61.558594 178.335938 L 69.796875 183.328125 L 61.558594 188.191406 C 59.671875 189.359375 58.410156 191.023438 57.78125 193.183594 C 57.328125 195.433594 57.644531 197.414062 58.726562 199.125 C 59.894531 201.105469 61.558594 202.363281 63.71875 202.90625 C 65.878906 203.445312 67.859375 203.175781 69.660156 202.09375 L 77.488281 197.371094 L 77.488281 208.035156 C 77.488281 210.195312 78.253906 212.039062 79.785156 213.570312 C 81.40625 215.191406 83.339844 216 85.589844 216 C 87.839844 216 89.683594 215.191406 91.125 213.570312 C 92.746094 212.128906 93.554688 210.285156 93.554688 208.035156 L 93.554688 197.371094 L 101.25 202.09375 C 103.320312 203.175781 105.34375 203.445312 107.324219 202.90625 C 109.574219 202.363281 111.238281 201.105469 112.320312 199.125 C 113.578125 197.324219 113.851562 195.34375 113.128906 193.183594 C 112.589844 191.113281 111.375 189.449219 109.484375 188.191406 L 101.113281 183.328125 L 109.484375 178.335938 C 111.375 177.074219 112.589844 175.410156 113.128906 173.339844 C 113.851562 171.179688 113.578125 169.15625 112.320312 167.265625 C 111.328125 165.464844 109.664062 164.203125 107.324219 163.484375 Z M 107.324219 163.484375 "/>
<path style="fill:none;stroke-width:1;stroke-linecap:round;stroke-linejoin:round;stroke:rgb(36.862745%,45.882353%,52.54902%);stroke-opacity:1;stroke-miterlimit:4;" d="M 74.350405 21.850405 C 73.816551 16.516204 71.582755 11.883681 67.650463 7.949942 C 63.083044 3.417245 57.617188 1.150174 51.25 1.150174 C 44.882812 1.150174 39.399595 3.417245 34.800347 7.949942 C 32.300347 10.483218 30.483218 13.315972 29.350405 16.449653 L 28.149595 16.400463 C 23.517072 16.400463 19.550058 18.016493 16.25 21.25 C 12.983218 24.583333 11.349826 28.550347 11.349826 33.149595 C 11.349826 37.750289 12.983218 41.684028 16.25 44.949363 C 19.184028 47.883391 22.650463 49.499421 26.649306 49.800347 L 76.050347 49.800347 L 76.699942 49.749711 C 79.733796 49.350405 82.366898 48.033854 84.600694 45.800058 C 87.333623 43.06713 88.699363 39.749711 88.699363 35.850694 C 88.699363 31.983507 87.333623 28.683449 84.600694 25.950521 C 81.93287 23.216146 78.632812 21.850405 74.700521 21.850405 Z M 29.550058 57.799479 C 28.982928 58.43316 28.699363 59.133391 28.699363 59.900174 L 28.699363 62.650463 L 25.800058 60.950521 C 25.199653 60.516493 24.466146 60.383391 23.599537 60.549769 C 22.799479 60.782697 22.18316 61.25 21.750579 61.950231 C 21.349826 62.617188 21.232639 63.366609 21.400463 64.199942 C 21.633391 65 22.100694 65.616319 22.799479 66.050347 L 25.850694 67.899306 L 22.799479 69.700521 C 22.100694 70.133102 21.633391 70.749421 21.400463 71.549479 C 21.232639 72.382812 21.349826 73.116319 21.750579 73.75 C 22.18316 74.483507 22.799479 74.949363 23.599537 75.150463 C 24.399595 75.350116 25.133102 75.250289 25.800058 74.849537 L 28.699363 73.100405 L 28.699363 77.050058 C 28.699363 77.850116 28.982928 78.532986 29.550058 79.100116 C 30.150463 79.700521 30.866609 80 31.699942 80 C 32.533275 80 33.216146 79.700521 33.75 79.100116 C 34.350405 78.566262 34.649884 77.883391 34.649884 77.050058 L 34.649884 73.100405 L 37.5 74.849537 C 38.266782 75.250289 39.016204 75.350116 39.749711 75.150463 C 40.583044 74.949363 41.199363 74.483507 41.600116 73.75 C 42.065972 73.083044 42.167245 72.349537 41.899595 71.549479 C 41.699942 70.782697 41.25 70.166377 40.549769 69.700521 L 37.449363 67.899306 L 40.549769 66.050347 C 41.25 65.583044 41.699942 64.966725 41.899595 64.199942 C 42.167245 63.399884 42.065972 62.650463 41.600116 61.950231 C 41.232639 61.283275 40.616319 60.815972 39.749711 60.549769 C 38.949653 60.383391 38.200231 60.516493 37.5 60.950521 L 34.649884 62.650463 L 34.649884 59.900174 C 34.649884 59.100116 34.350405 58.399884 33.75 57.799479 C 33.216146 57.233796 32.533275 56.950231 31.699942 56.950231 C 30.833333 56.950231 30.117188 57.233796 29.550058 57.799479 Z M 71.549479 58.149595 C 70.983796 57.583912 70.283565 57.300347 69.450231 57.300347 C 68.683449 57.300347 67.983218 57.583912 67.349537 58.149595 C 66.783854 58.716725 66.500289 59.43287 66.500289 60.299479 L 66.500289 63.000579 L 63.599537 61.300637 C 62.899306 60.866609 62.167245 60.749421 61.400463 60.950521 C 60.633681 61.150174 60.017361 61.600116 59.550058 62.300347 C 59.11603 63.033854 59.000289 63.783275 59.199942 64.550058 C 59.399595 65.31684 59.849537 65.93316 60.549769 66.400463 L 63.650174 68.249421 L 60.549769 70.099826 C 59.849537 70.500579 59.399595 71.099537 59.199942 71.899595 C 59.000289 72.666377 59.11603 73.399884 59.550058 74.100116 C 59.982639 74.833623 60.600405 75.299479 61.400463 75.500579 C 62.167245 75.700231 62.899306 75.600405 63.599537 75.199653 L 66.500289 73.450521 L 66.500289 77.400174 C 66.500289 78.233507 66.783854 78.916377 67.349537 79.450231 C 67.949942 80.050637 68.650174 80.350116 69.450231 80.350116 C 70.31684 80.350116 71.017072 80.050637 71.549479 79.450231 C 72.149884 78.916377 72.449363 78.233507 72.449363 77.400174 L 72.449363 73.450521 L 75.299479 75.199653 C 75.999711 75.600405 76.750579 75.700231 77.550637 75.500579 C 78.350694 75.299479 78.967014 74.833623 79.399595 74.100116 C 79.800347 73.43316 79.900174 72.699653 79.700521 71.899595 C 79.499421 71.099537 79.033565 70.500579 78.300058 70.099826 L 75.250289 68.249421 L 78.300058 66.400463 C 79.033565 65.966435 79.499421 65.350116 79.700521 64.550058 C 79.900174 63.75 79.800347 63.000579 79.399595 62.300347 C 78.933738 61.600116 78.315972 61.150174 77.550637 60.950521 C 76.717303 60.749421 75.966435 60.866609 75.299479 61.300637 L 72.449363 63.000579 L 72.449363 60.299479 C 72.449363 59.466146 72.149884 58.75 71.549479 58.149595 Z M 45.050637 79.800347 C 44.383681 79.43287 43.650174 79.31713 42.850116 79.450231 C 42.050058 79.68316 41.433738 80.150463 40.999711 80.850694 C 40.600405 81.516204 40.483218 82.267072 40.649595 83.100405 C 40.88397 83.867188 41.333912 84.483507 41.999421 84.949363 L 45.099826 86.750579 L 41.999421 88.599537 C 41.333912 89.06684 40.88397 89.68316 40.649595 90.449942 C 40.516493 91.25 40.633681 91.983507 40.999711 92.650463 C 41.467014 93.417245 42.083333 93.867188 42.850116 94.000289 C 43.616898 94.233218 44.350405 94.133391 45.050637 93.699363 L 47.949942 91.999421 L 47.949942 95.899884 C 47.949942 96.733218 48.233507 97.433449 48.800637 98.000579 C 49.399595 98.599537 50.117188 98.900463 50.950521 98.900463 C 51.783854 98.900463 52.466725 98.599537 53.000579 98.000579 C 53.599537 97.466725 53.900463 96.766493 53.900463 95.899884 L 53.900463 91.999421 L 56.750579 93.699363 C 57.482639 94.166667 58.233507 94.266493 59.000289 94.000289 C 59.833623 93.833912 60.449942 93.38397 60.850694 92.650463 C 61.25 91.950231 61.349826 91.216725 61.150174 90.449942 C 60.950521 89.68316 60.500579 89.06684 59.800347 88.599537 L 56.699942 86.750579 L 59.800347 84.949363 C 60.500579 84.483507 60.950521 83.867188 61.150174 83.100405 C 61.349826 82.300347 61.25 81.549479 60.850694 80.850694 C 60.483218 80.183738 59.866898 79.716435 59.000289 79.450231 C 58.200231 79.283854 57.449363 79.399595 56.750579 79.800347 L 53.900463 81.549479 L 53.900463 78.800637 C 53.900463 77.967303 53.599537 77.249711 53.000579 76.649306 C 52.466725 76.116898 51.783854 75.850694 50.950521 75.850694 C 50.083912 75.850694 49.366319 76.116898 48.800637 76.649306 C 48.233507 77.282986 47.949942 78.000579 47.949942 78.800637 L 47.949942 81.549479 Z M 45.050637 79.800347 " transform="matrix(2.7,0,0,2.7,0,0)"/>
</g>
</svg>
