<?xml version="1.0" encoding="UTF-8"?>
<svg xmlns="http://www.w3.org/2000/svg" xmlns:xlink="http://www.w3.org/1999/xlink" width="170pt" height="170pt" viewBox="0 0 270 270" version="1.1">
<g id="surface1">
<path style=" stroke:none;fill-rule:nonzero;fill:rgb(69.803922%,92.54902%,94.901961%);fill-opacity:1;" d="M 238.679688 133.515625 C 246.78125 125.414062 250.828125 115.648438 250.828125 104.21875 C 250.828125 92.878906 246.78125 83.160156 238.679688 75.058594 C 230.761719 66.960938 221.085938 62.910156 209.65625 62.910156 L 208.710938 62.910156 C 207 47.339844 200.339844 33.75 188.730469 22.140625 C 175.5 8.910156 159.433594 2.296875 140.535156 2.296875 C 121.816406 2.296875 105.75 8.910156 92.339844 22.140625 C 85.050781 29.429688 79.695312 37.800781 76.273438 47.25 C 75.464844 47.070312 74.296875 46.980469 72.765625 46.980469 C 59.085938 46.980469 47.429688 51.703125 37.800781 61.15625 C 28.171875 70.964844 23.355469 82.621094 23.355469 96.121094 C 23.355469 109.890625 28.171875 121.5 37.800781 130.949219 C 46.261719 139.5 56.476562 144.269531 68.445312 145.261719 L 213.703125 145.261719 L 215.460938 145.125 C 224.371094 143.953125 232.109375 140.085938 238.679688 133.515625 M 218.835938 178.199219 C 220.546875 176.671875 221.398438 174.644531 221.398438 172.125 C 221.398438 169.785156 220.546875 167.761719 218.835938 166.050781 C 217.394531 164.25 215.371094 163.351562 212.761719 163.351562 C 210.238281 163.351562 208.214844 164.113281 206.683594 165.644531 C 203.804688 168.523438 200.96875 170.910156 198.179688 172.800781 L 198.179688 173.070312 C 195.839844 174.78125 193.230469 176.128906 190.351562 177.121094 L 190.484375 177.121094 C 187.425781 178.109375 184.050781 178.648438 180.359375 178.738281 C 177.839844 178.738281 175.90625 178.515625 174.554688 178.066406 L 165.914062 172.664062 L 165.914062 172.800781 C 162.40625 170.550781 158.761719 168.523438 154.980469 166.726562 L 154.441406 166.183594 C 150.570312 164.566406 145.890625 163.574219 140.398438 163.214844 C 134.371094 162.40625 128.296875 163.394531 122.175781 166.183594 C 117.046875 168.433594 113.625 170.191406 111.914062 171.449219 C 111.015625 171.898438 109.035156 172.664062 105.976562 173.746094 L 105.976562 174.015625 L 97.066406 177.121094 C 96.703125 177.121094 93.824219 177.253906 88.425781 177.523438 C 85.996094 176.894531 83.519531 176.085938 81 175.09375 C 78.480469 174.375 75.960938 173.25 73.441406 171.71875 L 65.746094 166.726562 C 63.675781 165.195312 61.515625 164.699219 59.265625 165.238281 C 56.835938 165.511719 54.945312 166.679688 53.59375 168.75 C 52.15625 170.640625 51.613281 172.84375 51.976562 175.363281 C 52.425781 177.703125 53.640625 179.550781 55.621094 180.898438 C 57.511719 182.339844 60.433594 184.320312 64.394531 186.839844 L 65.070312 187.246094 C 68.308594 189.046875 71.683594 190.53125 75.195312 191.699219 L 74.925781 191.566406 C 77.894531 192.734375 81.359375 193.859375 85.320312 194.941406 L 98.953125 194.671875 C 99.136719 194.671875 99.898438 194.535156 101.25 194.265625 L 112.050781 190.214844 L 112.453125 190.214844 L 120.554688 186.570312 L 120.960938 186.300781 C 122.761719 185.21875 125.59375 183.824219 129.464844 182.113281 C 132.433594 180.675781 135.539062 180.136719 138.78125 180.496094 C 142.019531 180.765625 144.945312 181.351562 147.554688 182.25 C 150.613281 183.78125 153.628906 185.535156 156.601562 187.515625 L 157.003906 187.515625 L 165.105469 192.644531 L 165.375 192.914062 C 168.796875 195.253906 173.96875 196.289062 180.898438 196.019531 C 186.210938 196.019531 191.160156 195.253906 195.75 193.726562 L 195.886719 193.726562 C 200.203125 192.285156 204.480469 189.988281 208.710938 186.839844 L 208.980469 186.839844 C 212.398438 184.140625 215.683594 181.261719 218.835938 178.199219 M 218.835938 251.101562 C 220.546875 249.570312 221.398438 247.546875 221.398438 245.023438 C 221.398438 242.503906 220.546875 240.433594 218.835938 238.816406 C 217.304688 237.015625 215.28125 236.113281 212.761719 236.113281 C 210.328125 236.113281 208.304688 236.925781 206.683594 238.546875 C 203.804688 241.335938 200.96875 243.71875 198.179688 245.699219 L 198.179688 245.96875 C 195.390625 247.769531 192.78125 249.121094 190.351562 250.019531 L 190.484375 250.019531 C 187.515625 250.921875 184.140625 251.371094 180.359375 251.371094 C 177.75 251.640625 175.816406 251.414062 174.554688 250.695312 C 170.59375 248.265625 167.714844 246.464844 165.914062 245.296875 L 165.914062 245.566406 C 162.40625 243.316406 158.761719 241.289062 154.980469 239.488281 L 154.441406 239.21875 C 150.929688 237.511719 146.25 236.386719 140.398438 235.84375 C 134.101562 235.125 128.023438 236.25 122.175781 239.21875 C 116.953125 241.378906 113.535156 243.046875 111.914062 244.214844 C 109.484375 245.203125 107.503906 246.015625 105.976562 246.644531 L 97.066406 250.019531 C 96.703125 250.019531 93.824219 250.15625 88.425781 250.425781 C 85.996094 249.796875 83.519531 248.984375 81 247.996094 C 78.03125 246.914062 75.511719 245.789062 73.441406 244.621094 L 65.746094 239.488281 C 63.585938 238.050781 61.425781 237.601562 59.265625 238.140625 C 56.925781 238.410156 55.035156 239.535156 53.59375 241.515625 C 52.15625 243.496094 51.613281 245.746094 51.976562 248.265625 C 52.335938 250.515625 53.550781 252.316406 55.621094 253.664062 C 58.230469 255.644531 61.15625 257.671875 64.394531 259.738281 L 65.070312 260.144531 C 68.578125 261.945312 71.953125 263.386719 75.195312 264.464844 L 74.925781 264.464844 L 85.320312 267.839844 L 88.15625 267.839844 C 90.675781 267.660156 94.273438 267.480469 98.953125 267.300781 C 100.035156 267.300781 100.800781 267.253906 101.25 267.164062 L 112.050781 263.113281 L 112.453125 263.113281 L 120.554688 259.46875 L 120.960938 259.066406 C 123.300781 257.804688 126.136719 256.453125 129.464844 255.015625 C 132.253906 253.484375 135.359375 252.855469 138.78125 253.125 C 142.378906 253.574219 145.304688 254.25 147.554688 255.148438 C 150.613281 256.679688 153.628906 258.433594 156.601562 260.414062 L 157.003906 260.414062 L 165.105469 265.546875 L 165.375 265.546875 C 168.703125 267.976562 173.878906 269.101562 180.898438 268.921875 C 186.210938 268.828125 191.160156 268.066406 195.75 266.625 L 195.886719 266.625 C 200.203125 265.183594 204.480469 262.890625 208.710938 259.738281 L 208.980469 259.738281 C 211.230469 257.941406 214.515625 255.058594 218.835938 251.101562 M 218.835938 215.324219 C 220.546875 213.613281 221.398438 211.546875 221.398438 209.113281 C 221.398438 206.683594 220.546875 204.660156 218.835938 203.039062 C 217.394531 201.238281 215.371094 200.339844 212.761719 200.339844 C 210.328125 200.339844 208.304688 201.148438 206.683594 202.769531 C 203.625 205.648438 200.789062 207.988281 198.179688 209.789062 L 198.179688 210.195312 C 195.390625 211.996094 192.78125 213.34375 190.351562 214.246094 L 190.484375 214.246094 C 187.515625 215.144531 184.140625 215.59375 180.359375 215.59375 C 177.75 215.683594 175.816406 215.460938 174.554688 214.921875 C 170.59375 212.488281 167.714844 210.691406 165.914062 209.519531 L 165.914062 209.789062 C 162.40625 207.539062 158.761719 205.515625 154.980469 203.714844 L 154.441406 203.175781 C 150.660156 201.644531 145.980469 200.609375 140.398438 200.070312 C 134.28125 199.351562 128.203125 200.386719 122.175781 203.175781 C 117.046875 205.425781 113.625 207.179688 111.914062 208.441406 C 109.484375 209.429688 107.503906 210.238281 105.976562 210.871094 L 97.066406 214.246094 L 88.425781 214.515625 C 86.175781 214.066406 83.699219 213.300781 81 212.21875 C 78.03125 211.140625 75.511719 210.015625 73.441406 208.84375 L 65.746094 203.714844 C 63.765625 202.273438 61.605469 201.824219 59.265625 202.363281 C 56.925781 202.453125 55.035156 203.578125 53.59375 205.738281 C 52.066406 207.628906 51.523438 209.878906 51.976562 212.488281 C 52.425781 214.738281 53.640625 216.539062 55.621094 217.890625 C 58.230469 219.871094 61.15625 221.894531 64.394531 223.964844 L 65.070312 224.371094 C 68.578125 226.171875 71.953125 227.609375 75.195312 228.691406 L 74.925781 228.691406 C 78.613281 230.039062 82.078125 231.074219 85.320312 231.796875 C 86.039062 231.976562 86.984375 232.066406 88.15625 232.066406 C 90.675781 231.886719 94.273438 231.703125 98.953125 231.523438 C 100.035156 231.523438 100.800781 231.390625 101.25 231.121094 L 112.050781 227.339844 L 112.453125 227.339844 C 115.066406 226.171875 117.765625 224.863281 120.554688 223.425781 L 120.960938 223.289062 C 122.941406 222.03125 125.773438 220.679688 129.464844 219.238281 C 132.253906 217.710938 135.359375 217.078125 138.78125 217.351562 C 142.199219 217.710938 145.125 218.339844 147.554688 219.238281 C 150.074219 220.5 153.089844 222.300781 156.601562 224.640625 L 157.003906 224.640625 L 165.105469 229.769531 L 165.375 229.769531 C 168.703125 232.199219 173.878906 233.324219 180.898438 233.144531 C 186.210938 233.054688 191.160156 232.289062 195.75 230.851562 C 195.839844 230.761719 195.886719 230.761719 195.886719 230.851562 C 200.203125 229.410156 204.480469 227.113281 208.710938 223.964844 L 208.980469 223.964844 C 211.230469 222.164062 214.515625 219.285156 218.835938 215.324219 Z M 218.835938 215.324219 "/>
<path style="fill:none;stroke-width:1;stroke-linecap:round;stroke-linejoin:round;stroke:rgb(36.862745%,45.882353%,52.54902%);stroke-opacity:1;stroke-miterlimit:4;" d="M 92.899306 38.599537 C 92.899306 34.399595 91.400463 30.800058 88.399884 27.799479 C 85.467303 24.800347 81.883681 23.300058 77.650463 23.300058 L 77.300347 23.300058 C 76.666667 17.533275 74.199942 12.5 69.900174 8.200231 C 65 3.300058 59.049479 0.850694 52.050058 0.850694 C 45.117188 0.850694 39.166667 3.300058 34.199942 8.200231 C 31.500289 10.899884 29.516782 14.000289 28.249421 17.5 C 27.949942 17.433449 27.517361 17.400174 26.950231 17.400174 C 21.883681 17.400174 17.566551 19.149306 14.000289 22.650463 C 10.434028 26.283275 8.650174 30.600405 8.650174 35.600405 C 8.650174 40.700231 10.434028 45 14.000289 48.499711 C 17.13397 51.666667 20.917245 53.43316 25.350116 53.800637 L 79.149306 53.800637 L 79.800347 53.75 C 83.100405 53.315972 85.966435 51.883681 88.399884 49.450231 C 91.400463 46.449653 92.899306 42.832755 92.899306 38.599537 Z M 81.050347 79.749711 C 81.684028 79.11603 81.999421 78.350694 81.999421 77.449363 C 81.999421 76.549479 81.684028 75.800058 81.050347 75.199653 C 80.516493 74.532697 79.767072 74.199942 78.800637 74.199942 C 77.899306 74.199942 77.149884 74.499421 76.549479 75.099826 C 75.416667 76.166088 74.366319 77.032697 73.399884 77.699653 L 73.399884 77.850116 C 72.366898 78.517072 71.400463 79.016204 70.500579 79.350405 L 70.549769 79.350405 C 69.450231 79.68316 68.200231 79.849537 66.799769 79.849537 C 65.833333 79.882812 65.117188 79.800347 64.649884 79.600694 C 63.18287 78.699363 62.116609 78.033854 61.449653 77.599826 L 61.449653 77.699653 C 60.150463 76.866319 58.800637 76.116898 57.400174 75.449942 L 57.200521 75.250289 C 55.800058 74.68316 54.06684 74.299769 51.999421 74.100116 C 49.733796 73.833912 47.482639 74.217303 45.250289 75.250289 C 43.350694 76.083623 42.083333 76.733218 41.449653 77.200521 C 40.549769 77.566551 39.816262 77.86603 39.250579 78.100405 L 35.950521 79.350405 L 32.750289 79.450231 C 31.916956 79.283854 30.999711 79.000289 30 78.599537 C 28.900463 78.200231 27.967303 77.783565 27.200521 77.349537 L 24.350405 75.449942 C 23.616898 74.916088 22.81684 74.749711 21.950231 74.949363 C 21.083623 74.982639 20.383391 75.399306 19.849537 76.199363 C 19.283854 76.899595 19.082755 77.732928 19.250579 78.699363 C 19.416956 79.532697 19.866898 80.199653 20.600405 80.700231 C 21.56684 81.433738 22.650463 82.18316 23.849826 82.949942 L 24.100116 83.100405 C 25.399306 83.767361 26.649306 84.299769 27.850116 84.700521 L 27.750289 84.700521 C 29.11603 85.199653 30.399306 85.583044 31.600116 85.850694 C 31.866319 85.917245 32.216435 85.950521 32.650463 85.950521 C 33.583623 85.88397 34.916088 85.815972 36.649306 85.749421 C 37.050058 85.749421 37.333623 85.700231 37.5 85.600405 L 41.500289 84.199942 L 41.649306 84.199942 C 42.617188 83.767361 43.616898 83.282697 44.649884 82.750289 L 44.800347 82.699653 C 45.533854 82.233796 46.582755 81.733218 47.949942 81.199363 C 48.982928 80.633681 50.133102 80.399306 51.400463 80.500579 C 52.666377 80.633681 53.75 80.866609 54.649884 81.199363 C 55.583044 81.666667 56.699942 82.333623 58.000579 83.200231 L 58.149595 83.200231 L 61.150174 85.099826 L 61.25 85.099826 C 62.482639 85.999711 64.399595 86.416377 66.999421 86.349826 C 68.967014 86.316551 70.800058 86.032986 72.5 85.500579 C 72.533275 85.467303 72.550637 85.467303 72.550637 85.500579 C 74.149306 84.966725 75.733507 84.11603 77.300347 82.949942 L 77.400174 82.949942 C 78.233507 82.282986 79.450231 81.216725 81.050347 79.749711 Z M 81.050347 93.000579 C 81.684028 92.433449 81.999421 91.684028 81.999421 90.749421 C 81.999421 89.816262 81.684028 89.049479 81.050347 88.450521 C 80.483218 87.783565 79.733796 87.449363 78.800637 87.449363 C 77.899306 87.449363 77.149884 87.750289 76.549479 88.350694 C 75.483218 89.383681 74.43287 90.266204 73.399884 90.999711 L 73.399884 91.099537 C 72.366898 91.766493 71.400463 92.267072 70.500579 92.599826 L 70.549769 92.599826 C 69.450231 92.934028 68.200231 93.100405 66.799769 93.100405 C 65.833333 93.200231 65.117188 93.116319 64.649884 92.850116 C 63.18287 91.950231 62.116609 91.283275 61.449653 90.850694 L 61.449653 90.950521 C 60.150463 90.117188 58.800637 89.366319 57.400174 88.699363 L 57.200521 88.599537 C 55.899884 87.967303 54.166667 87.550637 51.999421 87.349537 C 49.667245 87.083333 47.416088 87.5 45.250289 88.599537 C 43.315972 89.399595 42.050058 90.017361 41.449653 90.449942 C 40.549769 90.815972 39.816262 91.116898 39.250579 91.349826 L 35.950521 92.599826 C 35.815972 92.599826 34.749711 92.650463 32.750289 92.750289 C 31.850405 92.517361 30.93316 92.216435 30 91.850405 C 28.900463 91.449653 27.967303 91.032986 27.200521 90.600405 L 24.350405 88.699363 C 23.550347 88.166956 22.750289 88.000579 21.950231 88.200231 C 21.083623 88.300058 20.383391 88.716725 19.849537 89.450231 C 19.31713 90.183738 19.11603 91.017072 19.250579 91.950231 C 19.383681 92.783565 19.833623 93.450521 20.600405 93.949653 C 21.56684 94.68316 22.650463 95.434028 23.849826 96.199363 L 24.100116 96.349826 C 25.399306 97.016782 26.649306 97.550637 27.850116 97.949942 L 27.750289 97.949942 L 31.600116 99.199942 L 32.650463 99.199942 C 33.583623 99.133391 34.916088 99.06684 36.649306 99.000289 C 37.050058 99.000289 37.333623 98.982928 37.5 98.949653 L 41.500289 97.449363 L 41.649306 97.449363 L 44.649884 96.099537 L 44.800347 95.950521 C 45.666956 95.483218 46.717303 94.982639 47.949942 94.450231 C 48.982928 93.883102 50.133102 93.650174 51.400463 93.75 C 52.732928 93.916377 53.816551 94.166667 54.649884 94.499421 C 55.782697 95.066551 56.899595 95.716146 58.000579 96.449653 L 58.149595 96.449653 L 61.150174 98.350694 L 61.25 98.350694 C 62.482639 99.250579 64.399595 99.667245 66.999421 99.600694 C 68.967014 99.565972 70.800058 99.283854 72.5 98.75 L 72.550637 98.75 C 74.149306 98.216146 75.733507 97.366898 77.300347 96.199363 L 77.400174 96.199363 C 78.233507 95.533854 79.450231 94.466146 81.050347 93.000579 Z M 81.050347 65.999711 C 81.684028 65.434028 81.999421 64.68316 81.999421 63.75 C 81.999421 62.883391 81.684028 62.13397 81.050347 61.500289 C 80.516493 60.833333 79.767072 60.500579 78.800637 60.500579 C 77.86603 60.500579 77.116609 60.782697 76.549479 61.349826 C 75.483218 62.416088 74.43287 63.300058 73.399884 64.000289 L 73.399884 64.100116 C 72.533275 64.733796 71.56684 65.232928 70.500579 65.600405 L 70.549769 65.600405 C 69.416956 65.966435 68.166956 66.166088 66.799769 66.199363 C 65.866609 66.199363 65.150463 66.116898 64.649884 65.950521 L 61.449653 63.949653 L 61.449653 64.000289 C 60.150463 63.166956 58.800637 62.416088 57.400174 61.750579 L 57.200521 61.549479 C 55.766782 60.950521 54.033565 60.583044 51.999421 60.449942 C 49.767072 60.150463 47.517361 60.516493 45.250289 61.549479 C 43.350694 62.382812 42.083333 63.033854 41.449653 63.499711 C 41.116898 63.666088 40.383391 63.949653 39.250579 64.350405 L 39.250579 64.450231 L 35.950521 65.600405 C 35.815972 65.600405 34.749711 65.649595 32.750289 65.749421 C 31.850405 65.516493 30.93316 65.217014 30 64.849537 C 29.06684 64.583333 28.133681 64.166667 27.200521 63.599537 L 24.350405 61.750579 C 23.583623 61.183449 22.783565 60.999711 21.950231 61.199363 C 21.050347 61.300637 20.350116 61.733218 19.849537 62.5 C 19.31713 63.200231 19.11603 64.016204 19.250579 64.949363 C 19.416956 65.815972 19.866898 66.500289 20.600405 66.999421 C 21.300637 67.533275 22.382812 68.266782 23.849826 69.199942 L 24.100116 69.350405 C 25.299479 70.017361 26.549479 70.56713 27.850116 70.999711 L 27.750289 70.950521 C 28.849826 71.383102 30.133102 71.799769 31.600116 72.200521 L 36.649306 72.100694 C 36.717303 72.100694 36.999421 72.050058 37.5 71.950231 L 41.500289 70.449942 L 41.649306 70.449942 L 44.649884 69.100116 L 44.800347 69.000289 C 45.467303 68.599537 46.516204 68.083044 47.949942 67.449363 C 49.049479 66.916956 50.199653 66.717303 51.400463 66.850405 C 52.599826 66.950231 53.683449 67.167245 54.649884 67.5 C 55.782697 68.06713 56.899595 68.716725 58.000579 69.450231 L 58.149595 69.450231 L 61.150174 71.349826 L 61.25 71.449653 C 62.517361 72.316262 64.43287 72.699653 66.999421 72.599826 C 68.967014 72.599826 70.800058 72.316262 72.5 71.750579 L 72.550637 71.750579 C 74.149306 71.216725 75.733507 70.36603 77.300347 69.199942 L 77.400174 69.199942 C 78.666088 68.200231 79.882812 67.13397 81.050347 65.999711 Z M 81.050347 65.999711 " transform="matrix(2.7,0,0,2.7,0,0)"/>
</g>
</svg>
